<svg viewBox="0 0 400 400" fill="none" xmlns="http://www.w3.org/2000/svg">
    <g clip-path="url(#clip0_2_6)">
        <path d="M65.0238 161C65.0238 161 60.0829 36 192.5 36C317.012 36 318 161 318 161" stroke="white" stroke-width="18"/>
        <path d="M46.4378 170C46.4378 170 40.7548 18 193.061 18C336.274 18 337.41 170 337.41 170" stroke="black" stroke-width="15"/>
        <path d="M81.4316 156C81.4316 156 77.0375 52 194.8 52C305.532 52 306.41 156 306.41 156" stroke="black" stroke-width="10"/>
        <path d="M91.9687 149.524L26.4104 185.255L91.9687 220.524" stroke="#00FF00" stroke-width="15"/>
        <path d="M290.507 149.524L356.065 185.255L290.507 220.524" stroke="#00FF00" stroke-width="15"/>
        <path d="M211.407 135.688L175.84 228.324H166.524L202.149 135.688H211.407Z" fill="#00FFFF"/>
        <path d="M211.407 135.688L218.875 138.555L223.047 127.688H211.407V135.688ZM175.84 228.324V236.324H181.338L183.309 231.192L175.84 228.324ZM166.524 228.324L159.057 225.453L154.876 236.324H166.524V228.324ZM202.149 135.688V127.688H196.654L194.682 132.816L202.149 135.688ZM203.938 132.82L168.372 225.457L183.309 231.192L218.875 138.555L203.938 132.82ZM175.84 220.324H166.524V236.324H175.84V220.324ZM173.991 231.196L209.616 138.559L194.682 132.816L159.057 225.453L173.991 231.196ZM202.149 143.688H211.407V127.688H202.149V143.688Z" fill="#00FFFF"/>
    </g>
</svg>
 
