<svg width="256px" height="100px" viewBox="0 0 256 88" fill="none" xmlns="http://www.w3.org/2000/svg">
    <g clip-path="url(#clip0_5_68)">
        <g filter="url(#filter0_d_5_68)">
        <path d="M24.64 71.128V36.904H30.976L31.024 38.44C31.472 38.152 32.032 37.848 32.704 37.528C33.408 37.208 34.16 36.936 34.96 36.712C35.76 36.488 36.544 36.376 37.312 36.376C40.544 36.376 42.864 37.416 44.272 39.496C45.68 41.544 46.384 44.664 46.384 48.856C46.384 51.864 46.032 54.296 45.328 56.152C44.624 58.008 43.488 59.368 41.92 60.232C40.384 61.096 38.352 61.528 35.824 61.528C35.024 61.528 34.16 61.464 33.232 61.336C32.304 61.208 31.568 61.08 31.024 60.952V71.128H24.64ZM34.816 56.2C36.096 56.2 37.104 55.928 37.84 55.384C38.576 54.84 39.088 54.024 39.376 52.936C39.696 51.816 39.856 50.408 39.856 48.712C39.856 46.088 39.488 44.28 38.752 43.288C38.048 42.264 37.024 41.752 35.68 41.752C35.168 41.752 34.624 41.816 34.048 41.944C33.472 42.072 32.912 42.232 32.368 42.424C31.824 42.616 31.376 42.808 31.024 43V55.864C31.408 55.896 31.952 55.96 32.656 56.056C33.392 56.152 34.112 56.2 34.816 56.2ZM61.1174 61.528C58.3974 61.528 56.2054 61.08 54.5414 60.184C52.9094 59.288 51.7254 57.912 50.9894 56.056C50.2534 54.168 49.8854 51.736 49.8854 48.76C49.8854 45.88 50.2694 43.544 51.0374 41.752C51.8054 39.928 53.0214 38.584 54.6854 37.72C56.3494 36.824 58.4934 36.376 61.1174 36.376C63.7734 36.376 65.9174 36.824 67.5494 37.72C69.2134 38.584 70.4294 39.928 71.1974 41.752C71.9974 43.544 72.3974 45.88 72.3974 48.76C72.3974 51.736 72.0294 54.168 71.2934 56.056C70.5574 57.912 69.3574 59.288 67.6934 60.184C66.0614 61.08 63.8694 61.528 61.1174 61.528ZM61.1174 56.248C62.4614 56.248 63.4694 56.008 64.1414 55.528C64.8134 55.016 65.2614 54.216 65.4854 53.128C65.7414 52.008 65.8694 50.552 65.8694 48.76C65.8694 47 65.7254 45.608 65.4374 44.584C65.1494 43.528 64.6694 42.776 63.9974 42.328C63.3254 41.88 62.3654 41.656 61.1174 41.656C59.9014 41.656 58.9414 41.88 58.2374 42.328C57.5654 42.776 57.0854 43.528 56.7974 44.584C56.5094 45.608 56.3654 47 56.3654 48.76C56.3654 50.552 56.4774 52.008 56.7014 53.128C56.9574 54.216 57.4214 55.016 58.0934 55.528C58.7654 56.008 59.7734 56.248 61.1174 56.248ZM162.214 61.528C159.462 61.528 157.302 61.112 155.734 60.28C154.198 59.416 153.11 58.04 152.47 56.152C151.862 54.264 151.558 51.784 151.558 48.712C151.558 45.672 151.91 43.256 152.614 41.464C153.318 39.64 154.454 38.344 156.022 37.576C157.622 36.776 159.702 36.376 162.262 36.376C162.934 36.376 163.718 36.424 164.614 36.52C165.51 36.616 166.406 36.744 167.302 36.904C168.23 37.032 169.014 37.16 169.654 37.288L169.414 42.424C168.806 42.36 168.118 42.312 167.35 42.28C166.582 42.216 165.83 42.168 165.094 42.136C164.39 42.072 163.814 42.04 163.366 42.04C161.99 42.04 160.902 42.264 160.102 42.712C159.334 43.128 158.79 43.832 158.47 44.824C158.182 45.784 158.038 47.08 158.038 48.712C158.038 50.472 158.182 51.88 158.47 52.936C158.758 53.992 159.27 54.744 160.006 55.192C160.774 55.64 161.894 55.864 163.366 55.864C163.814 55.864 164.406 55.848 165.142 55.816C165.878 55.752 166.63 55.688 167.398 55.624C168.198 55.56 168.902 55.512 169.51 55.48L169.702 60.616C169.062 60.744 168.294 60.872 167.398 61C166.502 61.16 165.59 61.288 164.662 61.384C163.766 61.48 162.95 61.528 162.214 61.528ZM180.131 61.528C177.635 61.528 175.747 60.904 174.467 59.656C173.219 58.376 172.595 56.456 172.595 53.896C172.595 52.104 172.915 50.712 173.555 49.72C174.195 48.696 175.139 47.96 176.387 47.512C177.667 47.032 179.219 46.744 181.043 46.648L186.899 46.12V44.68C186.899 43.528 186.611 42.728 186.035 42.28C185.459 41.8 184.611 41.56 183.491 41.56C182.595 41.56 181.555 41.592 180.371 41.656C179.219 41.72 178.067 41.8 176.915 41.896C175.795 41.992 174.819 42.088 173.987 42.184L173.795 37.672C174.627 37.48 175.619 37.288 176.771 37.096C177.955 36.872 179.187 36.696 180.467 36.568C181.747 36.44 182.931 36.376 184.019 36.376C186.067 36.376 187.779 36.632 189.155 37.144C190.531 37.656 191.571 38.504 192.275 39.688C192.979 40.84 193.331 42.408 193.331 44.392V55.384C193.395 55.832 193.635 56.184 194.051 56.44C194.467 56.664 194.947 56.824 195.491 56.92L195.347 61.336C194.579 61.368 193.827 61.384 193.091 61.384C192.355 61.384 191.731 61.336 191.219 61.24C190.483 61.144 189.843 60.952 189.299 60.664C188.787 60.376 188.371 60.072 188.051 59.752C187.539 59.976 186.851 60.232 185.987 60.52C185.123 60.808 184.179 61.048 183.155 61.24C182.163 61.432 181.155 61.528 180.131 61.528ZM181.667 56.776C182.275 56.776 182.915 56.712 183.587 56.584C184.259 56.456 184.883 56.312 185.459 56.152C186.067 55.96 186.547 55.784 186.899 55.624V50.104L182.003 50.536C180.947 50.632 180.179 50.952 179.699 51.496C179.251 52.008 179.027 52.744 179.027 53.704C179.027 54.664 179.235 55.416 179.651 55.96C180.099 56.504 180.771 56.776 181.667 56.776ZM207.656 61.528C206.6 61.528 205.464 61.464 204.248 61.336C203.064 61.24 201.944 61.112 200.888 60.952C199.864 60.792 198.984 60.632 198.248 60.472L198.44 55.72C199.272 55.816 200.2 55.928 201.224 56.056C202.28 56.184 203.304 56.296 204.296 56.392C205.32 56.456 206.152 56.488 206.792 56.488C207.752 56.488 208.536 56.408 209.144 56.248C209.784 56.088 210.264 55.832 210.584 55.48C210.904 55.096 211.064 54.552 211.064 53.848C211.064 53.304 210.92 52.888 210.632 52.6C210.376 52.312 209.864 52.072 209.096 51.88C208.36 51.656 207.272 51.432 205.832 51.208C204.04 50.952 202.552 50.584 201.368 50.104C200.216 49.624 199.368 48.92 198.824 47.992C198.28 47.032 198.008 45.736 198.008 44.104C198.008 42.12 198.44 40.568 199.304 39.448C200.168 38.328 201.32 37.544 202.76 37.096C204.2 36.616 205.768 36.376 207.464 36.376C208.584 36.376 209.736 36.44 210.92 36.568C212.104 36.664 213.224 36.792 214.28 36.952C215.336 37.112 216.216 37.272 216.92 37.432L216.728 42.28C215.928 42.152 215 42.04 213.944 41.944C212.888 41.816 211.832 41.72 210.776 41.656C209.752 41.592 208.888 41.56 208.184 41.56C207.448 41.56 206.792 41.64 206.216 41.8C205.64 41.928 205.192 42.152 204.872 42.472C204.584 42.792 204.44 43.272 204.44 43.912C204.44 44.36 204.568 44.728 204.824 45.016C205.08 45.304 205.56 45.56 206.264 45.784C207 45.976 208.056 46.168 209.432 46.36C211.416 46.648 213 47.048 214.184 47.56C215.368 48.072 216.216 48.808 216.728 49.768C217.272 50.728 217.544 52.024 217.544 53.656C217.544 56.568 216.68 58.616 214.952 59.8C213.256 60.952 210.824 61.528 207.656 61.528ZM230.197 61.576C228.437 61.576 227.013 61.32 225.925 60.808C224.837 60.296 224.053 59.416 223.573 58.168C223.125 56.888 222.901 55.112 222.901 52.84V42.232H220.069V36.904H222.901V30.52H229.285V36.904H235.429V42.232H229.285V51.16C229.285 52.408 229.333 53.384 229.429 54.088C229.557 54.792 229.813 55.288 230.197 55.576C230.581 55.864 231.173 56.008 231.973 56.008C232.197 56.008 232.533 55.992 232.981 55.96C233.429 55.928 233.877 55.896 234.325 55.864C234.773 55.832 235.141 55.8 235.429 55.768L235.621 60.904C234.853 61.032 233.925 61.176 232.837 61.336C231.781 61.496 230.901 61.576 230.197 61.576Z" fill="white"/>
        <path d="M84.877 61.528C83.725 61.528 82.669 61.384 81.709 61.096C80.749 60.84 79.901 60.424 79.165 59.848C78.461 59.24 77.853 58.456 77.341 57.496C76.861 56.536 76.493 55.368 76.237 53.992C75.981 52.584 75.853 50.952 75.853 49.096C75.853 46.344 76.189 44.024 76.861 42.136C77.565 40.248 78.669 38.824 80.173 37.864C81.677 36.872 83.677 36.376 86.173 36.376C86.909 36.376 87.773 36.44 88.765 36.568C89.789 36.664 90.605 36.76 91.213 36.856V27.064H97.645V61H91.309L91.261 59.608C90.813 59.864 90.221 60.152 89.485 60.472C88.781 60.76 88.029 61 87.229 61.192C86.429 61.416 85.645 61.528 84.877 61.528ZM86.509 56.152C87.085 56.152 87.661 56.088 88.237 55.96C88.845 55.832 89.405 55.688 89.917 55.528C90.461 55.336 90.893 55.16 91.213 55V42.088C90.925 42.024 90.541 41.976 90.061 41.944C89.581 41.88 89.085 41.832 88.573 41.8C88.061 41.736 87.597 41.704 87.181 41.704C85.933 41.704 84.957 41.992 84.253 42.568C83.581 43.144 83.101 43.992 82.813 45.112C82.525 46.2 82.381 47.528 82.381 49.096C82.381 50.472 82.477 51.624 82.669 52.552C82.861 53.448 83.133 54.168 83.485 54.712C83.869 55.224 84.317 55.592 84.829 55.816C85.341 56.04 85.901 56.152 86.509 56.152ZM112.665 61.528C110.009 61.528 107.897 61.08 106.329 60.184C104.793 59.288 103.689 57.928 103.017 56.104C102.345 54.28 102.009 51.992 102.009 49.24C102.009 46.264 102.425 43.832 103.257 41.944C104.121 40.056 105.369 38.664 107.001 37.768C108.633 36.84 110.649 36.376 113.049 36.376C116.601 36.376 119.273 37.272 121.065 39.064C122.889 40.856 123.801 43.688 123.801 47.56L123.513 51.112H108.441C108.473 52.904 108.841 54.248 109.545 55.144C110.249 56.04 111.465 56.488 113.193 56.488C114.185 56.488 115.273 56.472 116.457 56.44C117.641 56.376 118.809 56.312 119.961 56.248C121.145 56.184 122.153 56.12 122.985 56.056L123.129 60.52C122.329 60.648 121.321 60.792 120.105 60.952C118.889 61.112 117.625 61.24 116.313 61.336C115.033 61.464 113.817 61.528 112.665 61.528ZM108.441 47.032H117.417C117.417 44.856 117.065 43.336 116.361 42.472C115.689 41.608 114.585 41.176 113.049 41.176C111.545 41.176 110.393 41.624 109.593 42.52C108.825 43.416 108.441 44.92 108.441 47.032ZM131.838 61L126.126 36.904H132.99L137.022 55.576H138.414L142.542 36.904H149.022L143.31 61H131.838Z" fill="#00FF00"/>
        <path d="M24.64 71.128H23.64V72.128H24.64V71.128ZM24.64 36.904V35.904H23.64V36.904H24.64ZM30.976 36.904L31.9755 36.8728L31.9452 35.904H30.976V36.904ZM31.024 38.44L30.0245 38.4712L30.0796 40.2359L31.5648 39.2812L31.024 38.44ZM32.704 37.528L32.2902 36.6176L32.2821 36.6213L32.2741 36.6251L32.704 37.528ZM34.96 36.712L34.6904 35.749L34.6904 35.749L34.96 36.712ZM44.272 39.496L43.4439 40.0566L43.448 40.0625L44.272 39.496ZM45.328 56.152L46.263 56.5067L46.263 56.5067L45.328 56.152ZM41.92 60.232L41.4374 59.3561L41.4297 59.3604L41.92 60.232ZM33.232 61.336L33.3686 60.3454L33.232 61.336ZM31.024 60.952L31.253 59.9786L30.024 59.6894V60.952H31.024ZM31.024 71.128V72.128H32.024V71.128H31.024ZM37.84 55.384L37.2456 54.5798L37.2456 54.5798L37.84 55.384ZM39.376 52.936L38.4145 52.6613L38.4118 52.6707L38.4093 52.6801L39.376 52.936ZM38.752 43.288L37.928 43.8545L37.9382 43.8694L37.9489 43.8838L38.752 43.288ZM32.368 42.424L32.0352 41.481L32.0352 41.481L32.368 42.424ZM31.024 43L30.5451 42.1221L30.024 42.4064V43H31.024ZM31.024 55.864H30.024V56.7841L30.941 56.8605L31.024 55.864ZM32.656 56.056L32.5209 57.0468L32.5267 57.0476L32.656 56.056ZM25.64 71.128V36.904H23.64V71.128H25.64ZM24.64 37.904H30.976V35.904H24.64V37.904ZM29.9765 36.9352L30.0245 38.4712L32.0235 38.4088L31.9755 36.8728L29.9765 36.9352ZM31.5648 39.2812C31.9663 39.023 32.4864 38.7392 33.1339 38.4309L32.2741 36.6251C31.5776 36.9568 30.9777 37.281 30.4832 37.5988L31.5648 39.2812ZM33.1178 38.4384C33.7719 38.1411 34.4754 37.8862 35.2296 37.675L34.6904 35.749C33.8446 35.9858 33.0441 36.2749 32.2902 36.6176L33.1178 38.4384ZM35.2296 37.675C35.949 37.4735 36.6423 37.376 37.312 37.376V35.376C36.4457 35.376 35.571 35.5025 34.6904 35.749L35.2296 37.675ZM37.312 37.376C40.3186 37.376 42.2746 38.3292 43.4439 40.0566L45.1001 38.9354C43.4534 36.5028 40.7694 35.376 37.312 35.376V37.376ZM43.448 40.0625C44.6867 41.8644 45.384 44.7417 45.384 48.856H47.384C47.384 44.5863 46.6733 41.2236 45.096 38.9295L43.448 40.0625ZM45.384 48.856C45.384 51.7989 45.0378 54.0973 44.393 55.7973L46.263 56.5067C47.0262 54.4947 47.384 51.9291 47.384 48.856H45.384ZM44.393 55.7973C43.7634 57.4573 42.7745 58.6194 41.4374 59.3562L42.4026 61.1078C44.2015 60.1166 45.4846 58.5587 46.263 56.5067L44.393 55.7973ZM41.4297 59.3604C40.0945 60.1115 38.2504 60.528 35.824 60.528V62.528C38.4536 62.528 40.6735 62.0805 42.4103 61.1036L41.4297 59.3604ZM35.824 60.528C35.0766 60.528 34.2588 60.4682 33.3686 60.3454L33.0954 62.3266C34.0612 62.4598 34.9714 62.528 35.824 62.528V60.528ZM33.3686 60.3454C32.454 60.2192 31.753 60.0962 31.253 59.9786L30.795 61.9254C31.383 62.0638 32.154 62.1968 33.0954 62.3266L33.3686 60.3454ZM30.024 60.952V71.128H32.024V60.952H30.024ZM31.024 70.128H24.64V72.128H31.024V70.128ZM34.816 57.2C36.2269 57.2 37.4697 56.9012 38.4344 56.1882L37.2456 54.5798C36.7383 54.9548 35.9651 55.2 34.816 55.2V57.2ZM38.4344 56.1882C39.3922 55.4802 40.0103 54.4477 40.3427 53.1919L38.4093 52.6801C38.1657 53.6003 37.7598 54.1998 37.2456 54.5798L38.4344 56.1882ZM40.3375 53.2107C40.6918 51.9708 40.856 50.4627 40.856 48.712H38.856C38.856 50.3533 38.7002 51.6611 38.4145 52.6613L40.3375 53.2107ZM40.856 48.712C40.856 46.069 40.5001 43.9658 39.5551 42.6922L37.9489 43.8838C38.4759 44.5942 38.856 46.107 38.856 48.712H40.856ZM39.576 42.7215C38.6682 41.401 37.3216 40.752 35.68 40.752V42.752C36.7264 42.752 37.4278 43.127 37.928 43.8545L39.576 42.7215ZM35.68 40.752C35.085 40.752 34.4678 40.8263 33.8311 40.9678L34.2649 42.9202C34.7802 42.8057 35.251 42.752 35.68 42.752V40.752ZM33.8311 40.9678C33.2167 41.1043 32.618 41.2753 32.0352 41.481L32.7008 43.367C33.206 43.1887 33.7273 43.0397 34.2649 42.9202L33.8311 40.9678ZM32.0352 41.481C31.4607 41.6838 30.9594 41.8961 30.5451 42.1221L31.5029 43.8779C31.7926 43.7199 32.1873 43.5482 32.7008 43.367L32.0352 41.481ZM30.024 43V55.864H32.024V43H30.024ZM30.941 56.8605C31.2988 56.8904 31.8224 56.9516 32.5209 57.0468L32.7911 55.0652C32.0816 54.9684 31.5172 54.9016 31.107 54.8675L30.941 56.8605ZM32.5267 57.0476C33.3032 57.1489 34.0665 57.2 34.816 57.2V55.2C34.1575 55.2 33.4808 55.1551 32.7853 55.0644L32.5267 57.0476ZM54.5414 60.184L54.0601 61.0606L54.0673 61.0645L54.5414 60.184ZM50.9894 56.056L50.0577 56.4192L50.0598 56.4246L50.9894 56.056ZM51.0374 41.752L51.9565 42.1459L51.959 42.1401L51.0374 41.752ZM54.6854 37.72L55.1462 38.6075L55.1529 38.604L55.1595 38.6005L54.6854 37.72ZM67.5494 37.72L67.0681 38.5966L67.0783 38.6022L67.0886 38.6075L67.5494 37.72ZM71.1974 41.752L70.2757 42.1401L70.2799 42.1499L70.2842 42.1596L71.1974 41.752ZM71.2934 56.056L72.223 56.4246L72.2251 56.4192L71.2934 56.056ZM67.6934 60.184L67.2193 59.3035L67.2121 59.3074L67.6934 60.184ZM64.1414 55.528L64.7226 56.3417L64.7352 56.3328L64.7474 56.3234L64.1414 55.528ZM65.4854 53.128L64.5105 52.9052L64.5081 52.9157L64.5059 52.9263L65.4854 53.128ZM65.4374 44.584L64.4726 44.8471L64.4747 44.8547L65.4374 44.584ZM63.9974 42.328L64.5521 41.4959L64.5521 41.4959L63.9974 42.328ZM58.2374 42.328L57.7005 41.4843L57.6915 41.49L57.6827 41.4959L58.2374 42.328ZM56.7974 44.584L57.7601 44.8548L57.7621 44.8471L56.7974 44.584ZM56.7014 53.128L55.7208 53.3241L55.7241 53.3406L55.728 53.357L56.7014 53.128ZM58.0934 55.528L57.4873 56.3234L57.4996 56.3328L57.5121 56.3417L58.0934 55.528ZM61.1174 60.528C58.4949 60.528 56.4838 60.0942 55.0155 59.3035L54.0673 61.0645C55.927 62.0658 58.2999 62.528 61.1174 62.528V60.528ZM55.0226 59.3074C53.61 58.5318 52.5759 57.3439 51.919 55.6874L50.0598 56.4246C50.8749 58.4801 52.2088 60.0442 54.0601 61.0606L55.0226 59.3074ZM51.9211 55.6928C51.2461 53.9614 50.8854 51.6647 50.8854 48.76H48.8854C48.8854 51.8073 49.2606 54.3746 50.0577 56.4192L51.9211 55.6928ZM50.8854 48.76C50.8854 45.9565 51.261 43.7688 51.9565 42.1459L50.1182 41.3581C49.2777 43.3192 48.8854 45.8035 48.8854 48.76H50.8854ZM51.959 42.1401C52.6419 40.5183 53.7015 39.3576 55.1462 38.6075L54.2246 36.8325C52.3412 37.8104 50.9689 39.3377 50.1157 41.3639L51.959 42.1401ZM55.1595 38.6005C56.6322 37.8075 58.598 37.376 61.1174 37.376V35.376C58.3888 35.376 56.0666 35.8405 54.2113 36.8395L55.1595 38.6005ZM61.1174 37.376C63.6726 37.376 65.6332 37.8088 67.0681 38.5966L68.0306 36.8434C66.2016 35.8392 63.8742 35.376 61.1174 35.376V37.376ZM67.0886 38.6075C68.5332 39.3576 69.5929 40.5183 70.2757 42.1401L72.119 41.3639C71.2659 39.3377 69.8935 37.8104 68.0102 36.8325L67.0886 38.6075ZM70.2842 42.1596C71.0067 43.7779 71.3974 45.9603 71.3974 48.76H73.3974C73.3974 45.7997 72.9881 43.3101 72.1105 41.3443L70.2842 42.1596ZM71.3974 48.76C71.3974 51.6647 71.0366 53.9614 70.3617 55.6928L72.2251 56.4192C73.0221 54.3746 73.3974 51.8073 73.3974 48.76H71.3974ZM70.3638 55.6874C69.7093 57.3378 68.6636 58.5258 67.2193 59.3035L68.1675 61.0645C70.0512 60.0502 71.4054 58.4862 72.223 56.4246L70.3638 55.6874ZM67.2121 59.3074C65.7815 60.0929 63.7757 60.528 61.1174 60.528V62.528C63.963 62.528 66.3413 62.0671 68.1746 61.0606L67.2121 59.3074ZM61.1174 57.248C62.5502 57.248 63.8044 56.9976 64.7226 56.3417L63.5601 54.7143C63.1343 55.0184 62.3725 55.248 61.1174 55.248V57.248ZM64.7474 56.3234C65.6652 55.6242 66.2077 54.5784 66.4648 53.3297L64.5059 52.9263C64.315 53.8536 63.9616 54.4078 63.5353 54.7326L64.7474 56.3234ZM66.4602 53.3508C66.7395 52.129 66.8694 50.5903 66.8694 48.76H64.8694C64.8694 50.5137 64.7432 51.887 64.5105 52.9052L66.4602 53.3508ZM66.8694 48.76C66.8694 46.9599 66.7237 45.464 66.4 44.3133L64.4747 44.8547C64.7271 45.752 64.8694 47.0401 64.8694 48.76H66.8694ZM66.4021 44.3209C66.0733 43.1152 65.4867 42.119 64.5521 41.4959L63.4427 43.16C63.852 43.4329 64.2254 43.9408 64.4726 44.8471L66.4021 44.3209ZM64.5521 41.4959C63.6488 40.8938 62.463 40.656 61.1174 40.656V42.656C62.2678 42.656 63.0019 42.8662 63.4427 43.16L64.5521 41.4959ZM61.1174 40.656C59.7933 40.656 58.6224 40.8976 57.7005 41.4843L58.7743 43.1717C59.2603 42.8624 60.0094 42.656 61.1174 42.656V40.656ZM57.6827 41.4959C56.748 42.119 56.1614 43.1152 55.8326 44.3209L57.7621 44.8471C58.0093 43.9408 58.3827 43.4329 58.7921 43.16L57.6827 41.4959ZM55.8347 44.3133C55.5111 45.464 55.3654 46.9599 55.3654 48.76H57.3654C57.3654 47.0401 57.5077 45.752 57.76 44.8547L55.8347 44.3133ZM55.3654 48.76C55.3654 50.5852 55.4788 52.1139 55.7208 53.3241L57.682 52.9319C57.476 51.9021 57.3654 50.5188 57.3654 48.76H55.3654ZM55.728 53.357C56.0198 54.5973 56.5787 55.6311 57.4873 56.3234L58.6994 54.7326C58.264 54.4009 57.895 53.8347 57.6748 52.899L55.728 53.357ZM57.5121 56.3417C58.4303 56.9976 59.6845 57.248 61.1174 57.248V55.248C59.8622 55.248 59.1004 55.0184 58.6746 54.7143L57.5121 56.3417ZM81.709 61.096L81.9963 60.1382L81.9816 60.1337L81.9667 60.1298L81.709 61.096ZM79.165 59.848L78.5114 60.6048L78.5297 60.6206L78.5487 60.6355L79.165 59.848ZM77.341 57.496L76.4466 57.9432L76.4525 57.955L76.4586 57.9666L77.341 57.496ZM76.237 53.992L75.2531 54.1709L75.2539 54.1749L76.237 53.992ZM76.861 42.136L75.924 41.7866L75.9214 41.7936L75.9189 41.8007L76.861 42.136ZM80.173 37.864L80.711 38.7069L80.7173 38.7029L80.7236 38.6988L80.173 37.864ZM88.765 36.568L88.637 37.5598L88.6543 37.562L88.6717 37.5636L88.765 36.568ZM91.213 36.856L91.057 37.8438L92.213 38.0263V36.856H91.213ZM91.213 27.064V26.064H90.213V27.064H91.213ZM97.645 27.064H98.645V26.064H97.645V27.064ZM97.645 61V62H98.645V61H97.645ZM91.309 61L90.3096 61.0345L90.3429 62H91.309V61ZM91.261 59.608L92.2604 59.5735L92.2033 57.9178L90.7649 58.7398L91.261 59.608ZM89.485 60.472L89.8636 61.3975L89.8737 61.3934L89.8837 61.3891L89.485 60.472ZM87.229 61.192L86.9956 60.2196L86.9774 60.224L86.9594 60.229L87.229 61.192ZM88.237 55.96L88.031 54.9814L88.0201 54.9838L88.237 55.96ZM89.917 55.528L90.2153 56.4825L90.2327 56.477L90.2498 56.471L89.917 55.528ZM91.213 55L91.6602 55.8944L92.213 55.618V55H91.213ZM91.213 42.088H92.213V41.2858L91.4299 41.1118L91.213 42.088ZM90.061 41.944L89.9288 42.9352L89.9616 42.9396L89.9945 42.9418L90.061 41.944ZM88.573 41.8L88.449 42.7923L88.4797 42.7961L88.5106 42.7981L88.573 41.8ZM84.253 42.568L83.6198 41.794L83.6109 41.8013L83.6022 41.8087L84.253 42.568ZM82.813 45.112L83.7797 45.3679L83.7815 45.361L82.813 45.112ZM82.669 52.552L81.6897 52.7546L81.6912 52.7615L82.669 52.552ZM83.485 54.712L82.6454 55.2553L82.6642 55.2843L82.685 55.312L83.485 54.712ZM84.829 55.816L84.4282 56.7322L84.4282 56.7322L84.829 55.816ZM84.877 60.528C83.8081 60.528 82.8504 60.3944 81.9963 60.1382L81.4217 62.0538C82.4876 62.3736 83.6419 62.528 84.877 62.528V60.528ZM81.9667 60.1298C81.1287 59.9063 80.4044 59.5482 79.7813 59.0605L78.5487 60.6355C79.3976 61.2998 80.3693 61.7737 81.4513 62.0622L81.9667 60.1298ZM79.8186 59.0912C79.2222 58.5761 78.6871 57.8948 78.2234 57.0254L76.4586 57.9666C77.019 59.0172 77.6998 59.9039 78.5114 60.6048L79.8186 59.0912ZM78.2354 57.0488C77.8076 56.1932 77.4639 55.1195 77.2201 53.8091L75.2539 54.1749C75.5221 55.6165 75.9144 56.8788 76.4466 57.9432L78.2354 57.0488ZM77.2209 53.8131C76.9782 52.4785 76.853 50.9086 76.853 49.096H74.853C74.853 50.9954 74.9838 52.6895 75.2531 54.1709L77.2209 53.8131ZM76.853 49.096C76.853 46.4186 77.1808 44.2198 77.8031 42.4713L75.9189 41.8007C75.1972 43.8282 74.853 46.2694 74.853 49.096H76.853ZM77.798 42.4854C78.4364 40.7733 79.4134 39.5352 80.711 38.7069L79.635 37.0211C77.9246 38.1128 76.6936 39.7227 75.924 41.7866L77.798 42.4854ZM80.7236 38.6988C82.0125 37.8487 83.7999 37.376 86.173 37.376V35.376C83.5541 35.376 81.3415 35.8953 79.6224 37.0292L80.7236 38.6988ZM86.173 37.376C86.8541 37.376 87.6735 37.4355 88.637 37.5598L88.893 35.5762C87.8725 35.4445 86.9639 35.376 86.173 35.376V37.376ZM88.6717 37.5636C89.6866 37.6588 90.479 37.7525 91.057 37.8438L91.369 35.8682C90.731 35.7675 89.8914 35.6692 88.8583 35.5724L88.6717 37.5636ZM92.213 36.856V27.064H90.213V36.856H92.213ZM91.213 28.064H97.645V26.064H91.213V28.064ZM96.645 27.064V61H98.645V27.064H96.645ZM97.645 60H91.309V62H97.645V60ZM92.3084 60.9655L92.2604 59.5735L90.2616 59.6425L90.3096 61.0345L92.3084 60.9655ZM90.7649 58.7398C90.3607 58.9707 89.805 59.2424 89.0863 59.5549L89.8837 61.3891C90.637 61.0616 91.2653 60.7573 91.7571 60.4762L90.7649 58.7398ZM89.1064 59.5465C88.4532 59.8137 87.7501 60.0385 86.9956 60.2196L87.4624 62.1644C88.3079 61.9615 89.1088 61.7063 89.8636 61.3975L89.1064 59.5465ZM86.9594 60.229C86.24 60.4305 85.5467 60.528 84.877 60.528V62.528C85.7433 62.528 86.618 62.4015 87.4986 62.155L86.9594 60.229ZM86.509 57.152C87.1597 57.152 87.8084 57.0796 88.4539 56.9362L88.0201 54.9838C87.5136 55.0964 87.0103 55.152 86.509 55.152V57.152ZM88.443 56.9385C89.0774 56.805 89.6686 56.6533 90.2153 56.4825L89.6187 54.5735C89.1414 54.7227 88.6126 54.859 88.031 54.9814L88.443 56.9385ZM90.2498 56.471C90.8124 56.2724 91.2877 56.0807 91.6602 55.8944L90.7658 54.1056C90.4983 54.2393 90.1096 54.3996 89.5842 54.585L90.2498 56.471ZM92.213 55V42.088H90.213V55H92.213ZM91.4299 41.1118C91.0714 41.0321 90.6308 40.9798 90.1275 40.9462L89.9945 42.9418C90.4512 42.9722 90.7786 43.0159 90.9961 43.0642L91.4299 41.1118ZM90.1932 40.9528C89.6887 40.8855 89.1693 40.8353 88.6354 40.8019L88.5106 42.7981C89.0007 42.8287 89.4733 42.8745 89.9288 42.9352L90.1932 40.9528ZM88.697 40.8077C88.1532 40.7397 87.6469 40.704 87.181 40.704V42.704C87.5471 42.704 87.9688 42.7323 88.449 42.7923L88.697 40.8077ZM87.181 40.704C85.7875 40.704 84.5589 41.0257 83.6198 41.794L84.8862 43.342C85.3551 42.9583 86.0785 42.704 87.181 42.704V40.704ZM83.6022 41.8087C82.733 42.5538 82.168 43.6047 81.8445 44.863L83.7815 45.361C84.034 44.3792 84.429 43.7342 84.9038 43.3273L83.6022 41.8087ZM81.8463 44.8561C81.5294 46.0531 81.381 47.4727 81.381 49.096H83.381C83.381 47.5833 83.5206 46.3469 83.7797 45.3679L81.8463 44.8561ZM81.381 49.096C81.381 50.5124 81.4793 51.7375 81.6897 52.7546L83.6483 52.3494C83.4747 51.5105 83.381 50.4316 83.381 49.096H81.381ZM81.6912 52.7615C81.8989 53.7309 82.2063 54.5766 82.6454 55.2553L84.3246 54.1687C84.0597 53.7594 83.8231 53.1651 83.6468 52.3425L81.6912 52.7615ZM82.685 55.312C83.1573 55.9417 83.7363 56.4295 84.4282 56.7322L85.2298 54.8998C84.8977 54.7545 84.5807 54.5063 84.285 54.112L82.685 55.312ZM84.4282 56.7322C85.0773 57.0162 85.7753 57.152 86.509 57.152V55.152C86.0267 55.152 85.6047 55.0638 85.2298 54.8998L84.4282 56.7322ZM106.329 60.184L105.825 61.0478L105.833 61.0522L106.329 60.184ZM103.017 56.104L103.956 55.7583L103.956 55.7583L103.017 56.104ZM103.257 41.944L102.348 41.5278L102.342 41.5407L103.257 41.944ZM107.001 37.768L107.483 38.6446L107.489 38.641L107.496 38.6373L107.001 37.768ZM121.065 39.064L120.358 39.7711L120.364 39.7773L121.065 39.064ZM123.801 47.56L124.798 47.6408L124.801 47.6005V47.56H123.801ZM123.513 51.112V52.112H124.435L124.51 51.1928L123.513 51.112ZM108.441 51.112V50.112H107.423L107.441 51.1299L108.441 51.112ZM109.545 55.144L110.332 54.5262L110.332 54.5262L109.545 55.144ZM116.457 56.44L116.484 57.4396L116.498 57.4393L116.511 57.4385L116.457 56.44ZM119.961 56.248L119.907 55.2495L119.906 55.2495L119.961 56.248ZM122.985 56.056L123.985 56.0238L123.951 54.9788L122.909 55.0589L122.985 56.056ZM123.129 60.52L123.287 61.5074L124.157 61.3683L124.129 60.4878L123.129 60.52ZM120.105 60.952L119.975 59.9605L119.975 59.9605L120.105 60.952ZM116.313 61.336L116.24 60.3387L116.227 60.3396L116.214 60.341L116.313 61.336ZM108.441 47.032H107.441V48.032H108.441V47.032ZM117.417 47.032V48.032H118.417V47.032H117.417ZM116.361 42.472L115.572 43.0859L115.579 43.0949L115.586 43.1037L116.361 42.472ZM109.593 42.52L108.847 41.854L108.841 41.8615L108.834 41.8692L109.593 42.52ZM112.665 60.528C110.107 60.528 108.188 60.0941 106.825 59.3158L105.833 61.0522C107.607 62.0659 109.912 62.528 112.665 62.528V60.528ZM106.833 59.3202C105.517 58.5524 104.555 57.3861 103.956 55.7583L102.079 56.4497C102.823 58.4699 104.07 60.0236 105.825 61.0478L106.833 59.3202ZM103.956 55.7583C103.338 54.0806 103.009 51.9192 103.009 49.24H101.009C101.009 52.0648 101.353 54.4794 102.079 56.4497L103.956 55.7583ZM103.009 49.24C103.009 46.3462 103.415 44.065 104.172 42.3473L102.342 41.5407C101.435 43.599 101.009 46.1818 101.009 49.24H103.009ZM104.167 42.3601C104.952 40.644 106.061 39.4252 107.483 38.6446L106.52 36.8914C104.678 37.9028 103.291 39.468 102.348 41.5279L104.167 42.3601ZM107.496 38.6373C108.941 37.8156 110.775 37.376 113.049 37.376V35.376C110.523 35.376 108.326 35.8644 106.507 36.8987L107.496 38.6373ZM113.049 37.376C116.444 37.376 118.818 38.2313 120.358 39.7711L121.772 38.3569C119.728 36.3127 116.758 35.376 113.049 35.376V37.376ZM120.364 39.7773C121.918 41.3035 122.801 43.8201 122.801 47.56H124.801C124.801 43.5559 123.861 40.4084 121.766 38.3507L120.364 39.7773ZM122.805 47.4792L122.517 51.0312L124.51 51.1928L124.798 47.6408L122.805 47.4792ZM123.513 50.112H108.441V52.112H123.513V50.112ZM107.441 51.1299C107.475 53.0232 107.863 54.6211 108.759 55.7618L110.332 54.5262C109.82 53.8749 109.471 52.7848 109.441 51.0941L107.441 51.1299ZM108.759 55.7618C109.734 57.003 111.321 57.488 113.193 57.488V55.488C111.61 55.488 110.764 55.077 110.332 54.5262L108.759 55.7618ZM113.193 57.488C114.196 57.488 115.293 57.4718 116.484 57.4396L116.43 55.4404C115.254 55.4722 114.175 55.488 113.193 55.488V57.488ZM116.511 57.4385C117.696 57.3745 118.864 57.3105 120.017 57.2465L119.906 55.2495C118.754 55.3135 117.587 55.3775 116.403 55.4415L116.511 57.4385ZM120.015 57.2465C121.204 57.1823 122.22 57.1178 123.062 57.0531L122.909 55.0589C122.087 55.1222 121.087 55.1857 119.907 55.2495L120.015 57.2465ZM121.986 56.0882L122.13 60.5522L124.129 60.4878L123.985 56.0238L121.986 56.0882ZM122.971 59.5326C122.184 59.6586 121.186 59.8012 119.975 59.9605L120.236 61.9435C121.457 61.7828 122.475 61.6374 123.287 61.5074L122.971 59.5326ZM119.975 59.9605C118.779 60.1179 117.534 60.244 116.24 60.3387L116.386 62.3333C117.716 62.236 118.999 62.1061 120.236 61.9435L119.975 59.9605ZM116.214 60.341C114.963 60.466 113.78 60.528 112.665 60.528V62.528C113.854 62.528 115.103 62.462 116.413 62.331L116.214 60.341ZM108.441 48.032H117.417V46.032H108.441V48.032ZM118.417 47.032C118.417 44.8132 118.071 42.9877 117.136 41.8403L115.586 43.1037C116.059 43.6843 116.417 44.8988 116.417 47.032H118.417ZM117.151 41.8581C116.221 40.6627 114.762 40.176 113.049 40.176V42.176C114.408 42.176 115.158 42.5533 115.572 43.0859L117.151 41.8581ZM113.049 40.176C111.338 40.176 109.883 40.694 108.847 41.854L110.339 43.186C110.903 42.554 111.753 42.176 113.049 42.176V40.176ZM108.834 41.8692C107.828 43.043 107.441 44.8502 107.441 47.032H109.441C109.441 44.9898 109.823 43.789 110.353 43.1708L108.834 41.8692ZM131.838 61L130.865 61.2307L131.048 62H131.838V61ZM126.126 36.904V35.904H124.861L125.153 37.1347L126.126 36.904ZM132.99 36.904L133.968 36.6929L133.797 35.904H132.99V36.904ZM137.022 55.576L136.045 55.7871L136.215 56.576H137.022V55.576ZM138.414 55.576V56.576H139.217L139.391 55.7919L138.414 55.576ZM142.542 36.904V35.904H141.739L141.566 36.6881L142.542 36.904ZM149.022 36.904L149.995 37.1347L150.287 35.904H149.022V36.904ZM143.31 61V62H144.101L144.283 61.2307L143.31 61ZM132.811 60.7693L127.099 36.6733L125.153 37.1347L130.865 61.2307L132.811 60.7693ZM126.126 37.904H132.99V35.904H126.126V37.904ZM132.013 37.1151L136.045 55.7871L138 55.3649L133.968 36.6929L132.013 37.1151ZM137.022 56.576H138.414V54.576H137.022V56.576ZM139.391 55.7919L143.519 37.1199L141.566 36.6881L137.438 55.3601L139.391 55.7919ZM142.542 37.904H149.022V35.904H142.542V37.904ZM148.049 36.6733L142.337 60.7693L144.283 61.2307L149.995 37.1347L148.049 36.6733ZM143.31 60H131.838V62H143.31V60ZM155.734 60.28L155.244 61.1516L155.255 61.1576L155.266 61.1633L155.734 60.28ZM152.47 56.152L151.519 56.4585L151.521 56.4658L151.523 56.473L152.47 56.152ZM152.614 41.464L153.545 41.8297L153.547 41.8241L152.614 41.464ZM156.022 37.576L156.462 38.4741L156.47 38.4704L156.022 37.576ZM164.614 36.52L164.721 35.5257L164.721 35.5257L164.614 36.52ZM167.302 36.904L167.127 37.8884L167.146 37.8919L167.166 37.8946L167.302 36.904ZM169.654 37.288L170.653 37.3347L170.693 36.476L169.85 36.3074L169.654 37.288ZM169.414 42.424L169.31 43.4185L170.364 43.5295L170.413 42.4707L169.414 42.424ZM167.35 42.28L167.267 43.2765L167.288 43.2783L167.309 43.2791L167.35 42.28ZM165.094 42.136L165.004 43.1319L165.027 43.134L165.051 43.1351L165.094 42.136ZM160.102 42.712L160.579 43.5914L160.591 43.5845L160.102 42.712ZM158.47 44.824L157.519 44.517L157.516 44.5268L157.513 44.5367L158.47 44.824ZM158.47 52.936L159.435 52.6729L159.435 52.6729L158.47 52.936ZM160.006 55.192L159.486 56.0462L159.494 56.0511L159.503 56.0558L160.006 55.192ZM165.142 55.816L165.186 56.8151L165.207 56.8141L165.229 56.8122L165.142 55.816ZM167.398 55.624L167.319 54.6272L167.315 54.6275L167.398 55.624ZM169.51 55.48L170.51 55.4426L170.472 54.428L169.458 54.4814L169.51 55.48ZM169.702 60.616L169.898 61.5966L170.733 61.4296L170.702 60.5786L169.702 60.616ZM167.398 61L167.257 60.0101L167.24 60.0125L167.223 60.0156L167.398 61ZM164.662 61.384L164.559 60.3893L164.556 60.3897L164.662 61.384ZM162.214 60.528C159.544 60.528 157.569 60.1212 156.203 59.3967L155.266 61.1633C157.036 62.1028 159.381 62.528 162.214 62.528V60.528ZM156.225 59.4084C154.932 58.6813 153.989 57.5183 153.417 55.831L151.523 56.473C152.231 58.5617 153.465 60.1507 155.244 61.1516L156.225 59.4084ZM153.422 55.8455C152.859 54.0953 152.558 51.7305 152.558 48.712H150.558C150.558 51.8375 150.866 54.4327 151.519 56.4585L153.422 55.8455ZM152.558 48.712C152.558 45.733 152.906 43.4575 153.545 41.8297L151.684 41.0983C150.915 43.0545 150.558 45.611 150.558 48.712H152.558ZM153.547 41.8241C154.172 40.2047 155.148 39.1177 156.462 38.4741L155.583 36.6779C153.761 37.5703 152.464 39.0753 151.681 41.1039L153.547 41.8241ZM156.47 38.4704C157.884 37.7632 159.795 37.376 162.262 37.376V35.376C159.61 35.376 157.361 35.7888 155.575 36.6816L156.47 38.4704ZM162.262 37.376C162.889 37.376 163.636 37.4209 164.508 37.5143L164.721 35.5257C163.801 35.4271 162.98 35.376 162.262 35.376V37.376ZM164.508 37.5143C165.38 37.6078 166.253 37.7325 167.127 37.8884L167.478 35.9196C166.559 35.7555 165.64 35.6242 164.721 35.5257L164.508 37.5143ZM167.166 37.8946C168.082 38.0209 168.844 38.1458 169.458 38.2686L169.85 36.3074C169.184 36.1742 168.379 36.0431 167.439 35.9134L167.166 37.8946ZM168.655 37.2413L168.415 42.3773L170.413 42.4707L170.653 37.3347L168.655 37.2413ZM169.519 41.4295C168.886 41.3628 168.176 41.3135 167.392 41.2809L167.309 43.2791C168.061 43.3105 168.727 43.3572 169.31 43.4185L169.519 41.4295ZM167.433 41.2835C166.653 41.2184 165.888 41.1695 165.138 41.1369L165.051 43.1351C165.773 43.1665 166.512 43.2136 167.267 43.2765L167.433 41.2835ZM165.185 41.1401C164.466 41.0747 163.857 41.04 163.366 41.04V43.04C163.772 43.04 164.315 43.0693 165.004 43.1319L165.185 41.1401ZM163.366 41.04C161.898 41.04 160.62 41.2763 159.614 41.8395L160.591 43.5845C161.185 43.2517 162.082 43.04 163.366 43.04V41.04ZM159.626 41.8327C158.589 42.3943 157.901 43.3306 157.519 44.517L159.422 45.131C159.679 44.3334 160.079 43.8617 160.579 43.5913L159.626 41.8327ZM157.513 44.5367C157.185 45.6297 157.038 47.0356 157.038 48.712H159.038C159.038 47.1244 159.18 45.9383 159.428 45.1113L157.513 44.5367ZM157.038 48.712C157.038 50.514 157.184 52.0216 157.506 53.1991L159.435 52.6729C159.18 51.7384 159.038 50.43 159.038 48.712H157.038ZM157.506 53.1991C157.842 54.4323 158.477 55.432 159.486 56.0462L160.526 54.3378C160.063 54.056 159.675 53.5517 159.435 52.6729L157.506 53.1991ZM159.503 56.0558C160.493 56.6336 161.821 56.864 163.366 56.864V54.864C161.968 54.864 161.056 54.6464 160.51 54.3282L159.503 56.0558ZM163.366 56.864C163.835 56.864 164.443 56.8473 165.186 56.8151L165.099 54.8169C164.369 54.8487 163.794 54.864 163.366 54.864V56.864ZM165.229 56.8122C165.964 56.7483 166.715 56.6845 167.481 56.6205L167.315 54.6275C166.546 54.6915 165.793 54.7557 165.056 54.8198L165.229 56.8122ZM167.478 56.6208C168.272 56.5573 168.966 56.51 169.563 56.4786L169.458 54.4814C168.838 54.514 168.125 54.5627 167.319 54.6272L167.478 56.6208ZM168.511 55.5174L168.703 60.6534L170.702 60.5786L170.51 55.4426L168.511 55.5174ZM169.506 59.6354C168.89 59.7587 168.141 59.8837 167.257 60.0101L167.54 61.9899C168.448 61.8603 169.235 61.7293 169.898 61.5966L169.506 59.6354ZM167.223 60.0156C166.351 60.1712 165.464 60.2958 164.559 60.3893L164.765 62.3787C165.717 62.2802 166.653 62.1488 167.574 61.9844L167.223 60.0156ZM164.556 60.3897C163.688 60.4827 162.908 60.528 162.214 60.528V62.528C162.993 62.528 163.845 62.4773 164.769 62.3783L164.556 60.3897ZM174.467 59.656L173.751 60.3541L173.76 60.3632L173.769 60.372L174.467 59.656ZM173.555 49.72L174.395 50.2621L174.399 50.2561L174.403 50.25L173.555 49.72ZM176.387 47.512L176.725 48.4533L176.738 48.4483L176.387 47.512ZM181.043 46.648L181.096 47.6466L181.114 47.6456L181.133 47.644L181.043 46.648ZM186.899 46.12L186.989 47.116L187.899 47.0339V46.12H186.899ZM186.035 42.28L185.395 43.0482L185.408 43.059L185.421 43.0694L186.035 42.28ZM180.371 41.656L180.317 40.6575L180.316 40.6575L180.371 41.656ZM176.915 41.896L176.832 40.8994L176.83 40.8997L176.915 41.896ZM173.987 42.184L172.988 42.2265L173.034 43.3006L174.102 43.1774L173.987 42.184ZM173.795 37.672L173.57 36.6976L172.761 36.8844L172.796 37.7145L173.795 37.672ZM176.771 37.096L176.936 38.0824L176.946 38.0806L176.957 38.0786L176.771 37.096ZM180.467 36.568L180.368 35.573L180.368 35.573L180.467 36.568ZM189.155 37.144L188.806 38.0812L188.806 38.0812L189.155 37.144ZM192.275 39.688L191.416 40.1991L191.422 40.2094L192.275 39.688ZM193.331 55.384H192.331V55.4551L192.341 55.5254L193.331 55.384ZM194.051 56.44L193.527 57.2917L193.552 57.3068L193.577 57.3205L194.051 56.44ZM195.491 56.92L196.491 56.9526L196.519 56.0859L195.665 55.9352L195.491 56.92ZM195.347 61.336L195.389 62.3351L196.316 62.2965L196.347 61.3686L195.347 61.336ZM191.219 61.24L191.403 60.2571L191.376 60.252L191.348 60.2484L191.219 61.24ZM189.299 60.664L188.809 61.5356L188.82 61.5418L188.831 61.5478L189.299 60.664ZM188.051 59.752L188.758 59.0449L188.276 58.5623L187.65 58.8358L188.051 59.752ZM185.987 60.52L186.303 61.4687L186.303 61.4687L185.987 60.52ZM183.155 61.24L182.971 60.2571L182.965 60.2582L183.155 61.24ZM183.587 56.584L183.4 55.6017L183.4 55.6017L183.587 56.584ZM185.459 56.152L185.727 57.1155L185.744 57.1108L185.76 57.1056L185.459 56.152ZM186.899 55.624L187.313 56.5344L187.899 56.2679V55.624H186.899ZM186.899 50.104H187.899V49.0119L186.811 49.1079L186.899 50.104ZM182.003 50.536L181.915 49.5399L181.913 49.5401L182.003 50.536ZM179.699 51.496L178.949 50.8344L178.947 50.8375L179.699 51.496ZM179.651 55.96L178.857 56.5675L178.868 56.5818L178.879 56.5957L179.651 55.96ZM180.131 60.528C177.791 60.528 176.195 59.944 175.165 58.94L173.769 60.372C175.299 61.864 177.479 62.528 180.131 62.528V60.528ZM175.183 58.9579C174.183 57.9324 173.595 56.3081 173.595 53.896H171.595C171.595 56.6039 172.255 58.8196 173.751 60.3541L175.183 58.9579ZM173.595 53.896C173.595 52.2036 173.901 51.0291 174.395 50.2621L172.715 49.1779C171.93 50.3949 171.595 52.0044 171.595 53.896H173.595ZM174.403 50.25C174.912 49.4354 175.666 48.8332 176.725 48.4532L176.049 46.5708C174.612 47.0868 173.478 47.9566 172.707 49.19L174.403 50.25ZM176.738 48.4483C177.896 48.014 179.342 47.7389 181.096 47.6466L180.991 45.6494C179.096 45.7491 177.438 46.05 176.036 46.5757L176.738 48.4483ZM181.133 47.644L186.989 47.116L186.809 45.124L180.953 45.652L181.133 47.644ZM187.899 46.12V44.68H185.899V46.12H187.899ZM187.899 44.68C187.899 43.3995 187.582 42.2164 186.649 41.4906L185.421 43.0694C185.64 43.2396 185.899 43.6565 185.899 44.68H187.899ZM186.675 41.5118C185.849 40.8235 184.734 40.56 183.491 40.56V42.56C184.489 42.56 185.069 42.7765 185.395 43.0482L186.675 41.5118ZM183.491 40.56C182.572 40.56 181.514 40.5928 180.317 40.6575L180.425 42.6545C181.596 42.5912 182.618 42.56 183.491 42.56V40.56ZM180.316 40.6575C179.154 40.7221 177.993 40.8027 176.832 40.8995L176.998 42.8925C178.141 42.7973 179.284 42.7179 180.427 42.6545L180.316 40.6575ZM176.83 40.8997C175.703 40.9962 174.717 41.0932 173.873 41.1906L174.102 43.1774C174.921 43.0828 175.887 42.9878 177.001 42.8923L176.83 40.8997ZM174.986 42.1415L174.794 37.6295L172.796 37.7145L172.988 42.2265L174.986 42.1415ZM174.02 38.6464C174.826 38.4603 175.797 38.2721 176.936 38.0824L176.607 36.1096C175.441 36.3039 174.428 36.4997 173.57 36.6976L174.02 38.6464ZM176.957 38.0786C178.111 37.8603 179.314 37.6883 180.567 37.563L180.368 35.573C179.061 35.7037 177.8 35.8837 176.585 36.1134L176.957 38.0786ZM180.567 37.563C181.819 37.4378 182.97 37.376 184.019 37.376V35.376C182.893 35.376 181.675 35.4422 180.368 35.573L180.567 37.563ZM184.019 37.376C185.992 37.376 187.577 37.6236 188.806 38.0812L189.504 36.2068C187.982 35.6404 186.143 35.376 184.019 35.376V37.376ZM188.806 38.0812C189.984 38.5193 190.836 39.2247 191.416 40.1991L193.135 39.1769C192.306 37.7833 191.079 36.7927 189.504 36.2068L188.806 38.0812ZM191.422 40.2094C191.995 41.1473 192.331 42.511 192.331 44.392H194.331C194.331 42.305 193.963 40.5327 193.128 39.1665L191.422 40.2094ZM192.331 44.392V55.384H194.331V44.392H192.331ZM192.341 55.5254C192.451 56.2932 192.881 56.894 193.527 57.2917L194.575 55.5883C194.389 55.474 194.339 55.3708 194.321 55.2426L192.341 55.5254ZM193.577 57.3205C194.101 57.6028 194.686 57.7933 195.317 57.9048L195.665 55.9352C195.209 55.8547 194.833 55.7252 194.525 55.5595L193.577 57.3205ZM194.492 56.8874L194.348 61.3034L196.347 61.3686L196.491 56.9526L194.492 56.8874ZM195.305 60.3369C194.551 60.3683 193.813 60.384 193.091 60.384V62.384C193.842 62.384 194.607 62.3677 195.389 62.3351L195.305 60.3369ZM193.091 60.384C192.394 60.384 191.836 60.3381 191.403 60.2571L191.035 62.2229C191.627 62.3339 192.316 62.384 193.091 62.384V60.384ZM191.348 60.2484C190.707 60.1648 190.186 60.0022 189.767 59.7802L188.831 61.5478C189.5 61.9018 190.259 62.1232 191.09 62.2316L191.348 60.2484ZM189.789 59.7924C189.335 59.5366 188.998 59.2846 188.758 59.0449L187.344 60.4591C187.744 60.8594 188.24 61.2154 188.809 61.5356L189.789 59.7924ZM187.65 58.8358C187.178 59.0426 186.522 59.2877 185.671 59.5713L186.303 61.4687C187.181 61.1763 187.901 60.9094 188.452 60.6682L187.65 58.8358ZM185.671 59.5713C184.856 59.8431 183.956 60.0723 182.971 60.2571L183.339 62.2229C184.402 62.0237 185.391 61.7729 186.303 61.4687L185.671 59.5713ZM182.965 60.2582C182.037 60.4379 181.092 60.528 180.131 60.528V62.528C181.218 62.528 182.29 62.4261 183.345 62.2218L182.965 60.2582ZM181.667 57.776C182.345 57.776 183.048 57.7047 183.774 57.5663L183.4 55.6017C182.782 55.7193 182.205 55.776 181.667 55.776V57.776ZM183.774 57.5663C184.47 57.4339 185.121 57.2839 185.727 57.1155L185.191 55.1885C184.646 55.3401 184.049 55.4781 183.4 55.6017L183.774 57.5663ZM185.76 57.1056C186.385 56.9081 186.908 56.7182 187.313 56.5344L186.485 54.7136C186.186 54.8498 185.749 55.0119 185.158 55.1984L185.76 57.1056ZM187.899 55.624V50.104H185.899V55.624H187.899ZM186.811 49.1079L181.915 49.5399L182.091 51.5321L186.987 51.1001L186.811 49.1079ZM181.913 49.5401C180.718 49.6487 179.662 50.0263 178.949 50.8344L180.449 52.1576C180.696 51.8777 181.176 51.6153 182.094 51.5319L181.913 49.5401ZM178.947 50.8375C178.284 51.5945 178.027 52.6006 178.027 53.704H180.027C180.027 52.8874 180.218 52.4215 180.452 52.1545L178.947 50.8375ZM178.027 53.704C178.027 54.7973 178.263 55.7911 178.857 56.5675L180.445 55.3525C180.207 55.0409 180.027 54.5307 180.027 53.704H178.027ZM178.879 56.5957C179.567 57.4306 180.56 57.776 181.667 57.776V55.776C180.982 55.776 180.631 55.5774 180.423 55.3243L178.879 56.5957ZM204.248 61.336L204.353 60.3415L204.341 60.3402L204.329 60.3393L204.248 61.336ZM200.888 60.952L200.734 61.94L200.738 61.9407L200.888 60.952ZM198.248 60.472L197.249 60.4316L197.215 61.2708L198.036 61.4492L198.248 60.472ZM198.44 55.72L198.555 54.7266L197.484 54.6031L197.441 55.6796L198.44 55.72ZM201.224 56.056L201.1 57.0483L201.104 57.0487L201.224 56.056ZM204.296 56.392L204.2 57.3873L204.217 57.389L204.234 57.3901L204.296 56.392ZM209.144 56.248L208.902 55.2778L208.89 55.2809L209.144 56.248ZM210.584 55.48L211.324 56.1527L211.339 56.1367L211.352 56.1202L210.584 55.48ZM210.632 52.6L209.885 53.2644L209.904 53.2863L209.925 53.3071L210.632 52.6ZM209.096 51.88L208.805 52.8367L208.829 52.844L208.854 52.8501L209.096 51.88ZM205.832 51.208L205.986 50.2198L205.974 50.218L205.832 51.208ZM201.368 50.104L200.983 51.0271L200.992 51.0307L201.368 50.104ZM198.824 47.992L197.954 48.485L197.958 48.4914L197.961 48.4977L198.824 47.992ZM199.304 39.448L200.096 40.0588L200.096 40.0588L199.304 39.448ZM202.76 37.096L203.057 38.0509L203.067 38.0479L203.076 38.0447L202.76 37.096ZM210.92 36.568L210.813 37.5622L210.826 37.5636L210.839 37.5647L210.92 36.568ZM214.28 36.952L214.43 35.9633L214.43 35.9633L214.28 36.952ZM216.92 37.432L217.919 37.4716L217.952 36.6411L217.142 36.4569L216.92 37.432ZM216.728 42.28L216.57 43.2674L217.683 43.4455L217.727 42.3196L216.728 42.28ZM213.944 41.944L213.824 42.9367L213.839 42.9385L213.854 42.9399L213.944 41.944ZM210.776 41.656L210.714 42.6541L210.716 42.6542L210.776 41.656ZM206.216 41.8L206.433 42.7762L206.459 42.7705L206.484 42.7635L206.216 41.8ZM204.872 42.472L204.165 41.7649L204.146 41.7835L204.129 41.803L204.872 42.472ZM204.824 45.016L204.077 45.6804L204.077 45.6804L204.824 45.016ZM206.264 45.784L205.961 46.7369L205.986 46.7449L206.012 46.7516L206.264 45.784ZM209.432 46.36L209.576 45.3704L209.57 45.3696L209.432 46.36ZM216.728 49.768L215.846 50.2386L215.852 50.2499L215.858 50.261L216.728 49.768ZM214.952 59.8L215.514 60.6272L215.517 60.6249L214.952 59.8ZM207.656 60.528C206.64 60.528 205.539 60.4664 204.353 60.3415L204.143 62.3305C205.389 62.4616 206.56 62.528 207.656 62.528V60.528ZM204.329 60.3393C203.166 60.2449 202.069 60.1195 201.038 59.9633L200.738 61.9407C201.82 62.1045 202.963 62.2351 204.167 62.3327L204.329 60.3393ZM201.043 59.964C200.031 59.806 199.172 59.6494 198.461 59.4948L198.036 61.4492C198.797 61.6146 199.697 61.778 200.734 61.94L201.043 59.964ZM199.247 60.5124L199.439 55.7604L197.441 55.6796L197.249 60.4316L199.247 60.5124ZM198.326 56.7134C199.154 56.809 200.079 56.9206 201.1 57.0483L201.348 55.0637C200.322 54.9354 199.391 54.823 198.555 54.7266L198.326 56.7134ZM201.104 57.0487C202.167 57.1776 203.199 57.2905 204.2 57.3873L204.392 55.3966C203.409 55.3015 202.393 55.1904 201.344 55.0633L201.104 57.0487ZM204.234 57.3901C205.268 57.4547 206.123 57.488 206.792 57.488V55.488C206.181 55.488 205.372 55.4573 204.359 55.3939L204.234 57.3901ZM206.792 57.488C207.798 57.488 208.676 57.4052 209.399 57.2151L208.89 55.2809C208.396 55.4108 207.706 55.488 206.792 55.488V57.488ZM209.387 57.2181C210.147 57.0282 210.829 56.6972 211.324 56.1527L209.844 54.8073C209.699 54.9668 209.422 55.1478 208.902 55.2779L209.387 57.2181ZM211.352 56.1202C211.873 55.4954 212.064 54.6917 212.064 53.848H210.064C210.064 54.4123 209.935 54.6966 209.816 54.8398L211.352 56.1202ZM212.064 53.848C212.064 53.1307 211.871 52.4247 211.339 51.8929L209.925 53.3071C209.969 53.3513 210.064 53.4773 210.064 53.848H212.064ZM211.38 51.9356C210.908 51.4057 210.134 51.1086 209.339 50.9099L208.854 52.8501C209.198 52.9362 209.452 53.0253 209.632 53.1095C209.72 53.151 209.783 53.1877 209.826 53.217C209.847 53.2314 209.861 53.2431 209.871 53.2515C209.876 53.2557 209.879 53.2589 209.882 53.2611C209.884 53.2633 209.885 53.2644 209.885 53.2644L211.38 51.9356ZM209.387 50.9233C208.583 50.6784 207.439 50.4459 205.986 50.2199L205.678 52.1961C207.105 52.4181 208.138 52.6336 208.805 52.8367L209.387 50.9233ZM205.974 50.218C204.231 49.9692 202.829 49.617 201.744 49.1773L200.992 51.0307C202.276 51.551 203.849 51.9348 205.691 52.1979L205.974 50.218ZM201.753 49.1809C200.768 48.7705 200.104 48.198 199.687 47.4863L197.961 48.4977C198.632 49.642 199.664 50.4775 200.984 51.0271L201.753 49.1809ZM199.694 47.499C199.267 46.7445 199.008 45.6401 199.008 44.104H197.008C197.008 45.8319 197.294 47.3195 197.954 48.485L199.694 47.499ZM199.008 44.104C199.008 42.254 199.412 40.9455 200.096 40.0588L198.512 38.8372C197.468 40.1905 197.008 41.986 197.008 44.104H199.008ZM200.096 40.0588C200.826 39.1126 201.8 38.442 203.057 38.0509L202.463 36.1411C200.84 36.646 199.51 37.5434 198.512 38.8372L200.096 40.0588ZM203.076 38.0447C204.403 37.6024 205.863 37.376 207.464 37.376V35.376C205.673 35.376 203.997 35.6296 202.444 36.1473L203.076 38.0447ZM207.464 37.376C208.546 37.376 209.662 37.4378 210.813 37.5622L211.028 35.5738C209.81 35.4422 208.622 35.376 207.464 35.376V37.376ZM210.839 37.5647C212.003 37.6591 213.1 37.7845 214.13 37.9407L214.43 35.9633C213.349 35.7995 212.206 35.6689 211.001 35.5713L210.839 37.5647ZM214.13 37.9407C215.172 38.0986 216.027 38.2544 216.699 38.4071L217.142 36.4569C216.406 36.2896 215.5 36.1254 214.43 35.9633L214.13 37.9407ZM215.921 37.3924L215.729 42.2404L217.727 42.3196L217.919 37.4716L215.921 37.3924ZM216.886 41.2926C216.058 41.1601 215.107 41.0456 214.035 40.9481L213.854 42.9399C214.893 43.0344 215.798 43.1439 216.57 43.2674L216.886 41.2926ZM214.064 40.9513C212.989 40.8209 211.913 40.723 210.837 40.6578L210.716 42.6542C211.752 42.7169 212.788 42.8111 213.824 42.9367L214.064 40.9513ZM210.839 40.6579C209.802 40.5932 208.916 40.56 208.184 40.56V42.56C208.86 42.56 209.702 42.5908 210.714 42.6541L210.839 40.6579ZM208.184 40.56C207.378 40.56 206.629 40.6474 205.948 40.8365L206.484 42.7635C206.955 42.6325 207.519 42.56 208.184 42.56V40.56ZM205.999 40.8238C205.293 40.9807 204.655 41.2752 204.165 41.7649L205.579 43.1791C205.73 43.0288 205.987 42.8753 206.433 42.7762L205.999 40.8238ZM204.129 41.803C203.611 42.3784 203.44 43.1423 203.44 43.912H205.44C205.44 43.4017 205.557 43.2056 205.615 43.141L204.129 41.803ZM203.44 43.912C203.44 44.5626 203.632 45.18 204.077 45.6804L205.572 44.3516C205.504 44.276 205.44 44.1574 205.44 43.912H203.44ZM204.077 45.6804C204.519 46.1777 205.217 46.5001 205.961 46.7369L206.567 44.8311C205.903 44.6199 205.641 44.4303 205.572 44.3516L204.077 45.6804ZM206.012 46.7516C206.804 46.9583 207.905 47.1566 209.294 47.3504L209.57 45.3696C208.207 45.1794 207.196 44.9937 206.517 44.8164L206.012 46.7516ZM209.288 47.3496C211.228 47.6311 212.716 48.0145 213.787 48.4779L214.581 46.6421C213.284 46.0815 211.605 45.6649 209.576 45.3704L209.288 47.3496ZM213.787 48.4779C214.804 48.9174 215.459 49.5137 215.846 50.2386L217.61 49.2974C216.973 48.1023 215.933 47.2266 214.581 46.6421L213.787 48.4779ZM215.858 50.261C216.286 51.0155 216.544 52.1199 216.544 53.656H218.544C218.544 51.9281 218.259 50.4405 217.598 49.275L215.858 50.261ZM216.544 53.656C216.544 56.3779 215.745 58.0446 214.387 58.9751L215.517 60.6249C217.615 59.1874 218.544 56.7581 218.544 53.656H216.544ZM214.39 58.9728C212.928 59.9662 210.725 60.528 207.656 60.528V62.528C210.923 62.528 213.585 61.9378 215.514 60.6272L214.39 58.9728ZM225.925 60.808L225.5 61.7128L225.5 61.7128L225.925 60.808ZM223.573 58.168L222.63 58.4984L222.635 58.5127L222.64 58.527L223.573 58.168ZM222.901 42.232H223.901V41.232H222.901V42.232ZM220.069 42.232H219.069V43.232H220.069V42.232ZM220.069 36.904V35.904H219.069V36.904H220.069ZM222.901 36.904V37.904H223.901V36.904H222.901ZM222.901 30.52V29.52H221.901V30.52H222.901ZM229.285 30.52H230.285V29.52H229.285V30.52ZM229.285 36.904H228.285V37.904H229.285V36.904ZM235.429 36.904H236.429V35.904H235.429V36.904ZM235.429 42.232V43.232H236.429V42.232H235.429ZM229.285 42.232V41.232H228.285V42.232H229.285ZM229.429 54.088L228.439 54.2231L228.442 54.2451L228.446 54.2669L229.429 54.088ZM230.197 55.576L229.597 56.376L229.597 56.376L230.197 55.576ZM234.325 55.864L234.254 54.8665L234.254 54.8665L234.325 55.864ZM235.429 55.768L236.429 55.7306L236.388 54.6553L235.319 54.7741L235.429 55.768ZM235.621 60.904L235.786 61.8904L236.654 61.7458L236.621 60.8666L235.621 60.904ZM232.837 61.336L232.692 60.3466L232.688 60.3473L232.837 61.336ZM230.197 60.576C228.522 60.576 227.259 60.3303 226.351 59.9032L225.5 61.7128C226.768 62.3097 228.353 62.576 230.197 62.576V60.576ZM226.351 59.9032C225.523 59.5136 224.905 58.8458 224.507 57.809L222.64 58.527C223.201 59.9862 224.151 61.0784 225.5 61.7128L226.351 59.9032ZM224.517 57.8376C224.123 56.7116 223.901 55.0648 223.901 52.84H221.901C221.901 55.1592 222.128 57.0644 222.63 58.4984L224.517 57.8376ZM223.901 52.84V42.232H221.901V52.84H223.901ZM222.901 41.232H220.069V43.232H222.901V41.232ZM221.069 42.232V36.904H219.069V42.232H221.069ZM220.069 37.904H222.901V35.904H220.069V37.904ZM223.901 36.904V30.52H221.901V36.904H223.901ZM222.901 31.52H229.285V29.52H222.901V31.52ZM228.285 30.52V36.904H230.285V30.52H228.285ZM229.285 37.904H235.429V35.904H229.285V37.904ZM234.429 36.904V42.232H236.429V36.904H234.429ZM235.429 41.232H229.285V43.232H235.429V41.232ZM228.285 42.232V51.16H230.285V42.232H228.285ZM228.285 51.16C228.285 52.4249 228.334 53.4531 228.439 54.2231L230.42 53.9529C230.333 53.3149 230.285 52.3911 230.285 51.16H228.285ZM228.446 54.2669C228.597 55.0997 228.932 55.8771 229.597 56.376L230.797 54.776C230.695 54.6989 230.518 54.4843 230.413 53.9091L228.446 54.2669ZM229.597 56.376C230.236 56.8551 231.088 57.008 231.973 57.008V55.008C231.258 55.008 230.927 54.8729 230.797 54.776L229.597 56.376ZM231.973 57.008C232.234 57.008 232.599 56.9898 233.053 56.9575L232.91 54.9625C232.467 54.9942 232.16 55.008 231.973 55.008V57.008ZM233.053 56.9575C233.053 56.9574 233.054 56.9573 233.055 56.9573C233.056 56.9572 233.057 56.9571 233.058 56.9571C233.059 56.957 233.06 56.957 233.06 56.9569C233.061 56.9568 233.062 56.9568 233.063 56.9567C233.064 56.9566 233.065 56.9566 233.066 56.9565C233.067 56.9565 233.067 56.9564 233.068 56.9563C233.069 56.9563 233.07 56.9562 233.071 56.9561C233.072 56.9561 233.073 56.956 233.074 56.956C233.074 56.9559 233.075 56.9558 233.076 56.9558C233.077 56.9557 233.078 56.9556 233.079 56.9556C233.08 56.9555 233.081 56.9555 233.081 56.9554C233.082 56.9553 233.083 56.9553 233.084 56.9552C233.085 56.9551 233.086 56.9551 233.087 56.955C233.088 56.955 233.088 56.9549 233.089 56.9548C233.09 56.9548 233.091 56.9547 233.092 56.9546C233.093 56.9546 233.094 56.9545 233.095 56.9545C233.095 56.9544 233.096 56.9543 233.097 56.9543C233.098 56.9542 233.099 56.9541 233.1 56.9541C233.101 56.954 233.102 56.954 233.102 56.9539C233.103 56.9538 233.104 56.9538 233.105 56.9537C233.106 56.9536 233.107 56.9536 233.108 56.9535C233.109 56.9535 233.109 56.9534 233.11 56.9533C233.111 56.9533 233.112 56.9532 233.113 56.9531C233.114 56.9531 233.115 56.953 233.116 56.953C233.116 56.9529 233.117 56.9528 233.118 56.9528C233.119 56.9527 233.12 56.9526 233.121 56.9526C233.122 56.9525 233.123 56.9525 233.123 56.9524C233.124 56.9523 233.125 56.9523 233.126 56.9522C233.127 56.9521 233.128 56.9521 233.129 56.952C233.13 56.952 233.13 56.9519 233.131 56.9518C233.132 56.9518 233.133 56.9517 233.134 56.9516C233.135 56.9516 233.136 56.9515 233.137 56.9515C233.137 56.9514 233.138 56.9513 233.139 56.9513C233.14 56.9512 233.141 56.9511 233.142 56.9511C233.143 56.951 233.144 56.951 233.144 56.9509C233.145 56.9508 233.146 56.9508 233.147 56.9507C233.148 56.9506 233.149 56.9506 233.15 56.9505C233.151 56.9505 233.151 56.9504 233.152 56.9503C233.153 56.9503 233.154 56.9502 233.155 56.9501C233.156 56.9501 233.157 56.95 233.158 56.95C233.158 56.9499 233.159 56.9498 233.16 56.9498C233.161 56.9497 233.162 56.9496 233.163 56.9496C233.164 56.9495 233.165 56.9495 233.165 56.9494C233.166 56.9493 233.167 56.9493 233.168 56.9492C233.169 56.9491 233.17 56.9491 233.171 56.949C233.172 56.949 233.172 56.9489 233.173 56.9488C233.174 56.9488 233.175 56.9487 233.176 56.9486C233.177 56.9486 233.178 56.9485 233.179 56.9485C233.179 56.9484 233.18 56.9483 233.181 56.9483C233.182 56.9482 233.183 56.9481 233.184 56.9481C233.185 56.948 233.186 56.948 233.186 56.9479C233.187 56.9478 233.188 56.9478 233.189 56.9477C233.19 56.9476 233.191 56.9476 233.192 56.9475C233.193 56.9475 233.193 56.9474 233.194 56.9473C233.195 56.9473 233.196 56.9472 233.197 56.9471C233.198 56.9471 233.199 56.947 233.2 56.947C233.2 56.9469 233.201 56.9468 233.202 56.9468C233.203 56.9467 233.204 56.9466 233.205 56.9466C233.206 56.9465 233.207 56.9465 233.207 56.9464C233.208 56.9463 233.209 56.9463 233.21 56.9462C233.211 56.9461 233.212 56.9461 233.213 56.946C233.214 56.946 233.214 56.9459 233.215 56.9458C233.216 56.9458 233.217 56.9457 233.218 56.9456C233.219 56.9456 233.22 56.9455 233.221 56.9455C233.221 56.9454 233.222 56.9453 233.223 56.9453C233.224 56.9452 233.225 56.9451 233.226 56.9451C233.227 56.945 233.228 56.945 233.228 56.9449C233.229 56.9448 233.23 56.9448 233.231 56.9447C233.232 56.9446 233.233 56.9446 233.234 56.9445C233.235 56.9445 233.235 56.9444 233.236 56.9443C233.237 56.9443 233.238 56.9442 233.239 56.9441C233.24 56.9441 233.241 56.944 233.242 56.944C233.242 56.9439 233.243 56.9438 233.244 56.9438C233.245 56.9437 233.246 56.9436 233.247 56.9436C233.248 56.9435 233.249 56.9435 233.249 56.9434C233.25 56.9433 233.251 56.9433 233.252 56.9432C233.253 56.9431 233.254 56.9431 233.255 56.943C233.256 56.943 233.256 56.9429 233.257 56.9428C233.258 56.9428 233.259 56.9427 233.26 56.9426C233.261 56.9426 233.262 56.9425 233.263 56.9425C233.263 56.9424 233.264 56.9423 233.265 56.9423C233.266 56.9422 233.267 56.9421 233.268 56.9421C233.269 56.942 233.27 56.942 233.27 56.9419C233.271 56.9418 233.272 56.9418 233.273 56.9417C233.274 56.9416 233.275 56.9416 233.276 56.9415C233.277 56.9415 233.277 56.9414 233.278 56.9413C233.279 56.9413 233.28 56.9412 233.281 56.9411C233.282 56.9411 233.283 56.941 233.284 56.941C233.284 56.9409 233.285 56.9408 233.286 56.9408C233.287 56.9407 233.288 56.9406 233.289 56.9406C233.29 56.9405 233.291 56.9405 233.291 56.9404C233.292 56.9403 233.293 56.9403 233.294 56.9402C233.295 56.9401 233.296 56.9401 233.297 56.94C233.298 56.94 233.298 56.9399 233.299 56.9398C233.3 56.9398 233.301 56.9397 233.302 56.9396C233.303 56.9396 233.304 56.9395 233.305 56.9395C233.305 56.9394 233.306 56.9393 233.307 56.9393C233.308 56.9392 233.309 56.9391 233.31 56.9391C233.311 56.939 233.312 56.939 233.312 56.9389C233.313 56.9388 233.314 56.9388 233.315 56.9387C233.316 56.9386 233.317 56.9386 233.318 56.9385C233.319 56.9385 233.319 56.9384 233.32 56.9383C233.321 56.9383 233.322 56.9382 233.323 56.9381C233.324 56.9381 233.325 56.938 233.326 56.938C233.326 56.9379 233.327 56.9378 233.328 56.9378C233.329 56.9377 233.33 56.9376 233.331 56.9376C233.332 56.9375 233.333 56.9375 233.333 56.9374C233.334 56.9373 233.335 56.9373 233.336 56.9372C233.337 56.9371 233.338 56.9371 233.339 56.937C233.34 56.937 233.34 56.9369 233.341 56.9368C233.342 56.9368 233.343 56.9367 233.344 56.9366C233.345 56.9366 233.346 56.9365 233.347 56.9365C233.347 56.9364 233.348 56.9363 233.349 56.9363C233.35 56.9362 233.351 56.9361 233.352 56.9361C233.353 56.936 233.354 56.936 233.354 56.9359C233.355 56.9358 233.356 56.9358 233.357 56.9357C233.358 56.9356 233.359 56.9356 233.36 56.9355C233.361 56.9355 233.361 56.9354 233.362 56.9353C233.363 56.9353 233.364 56.9352 233.365 56.9351C233.366 56.9351 233.367 56.935 233.368 56.935C233.368 56.9349 233.369 56.9348 233.37 56.9348C233.371 56.9347 233.372 56.9346 233.373 56.9346C233.374 56.9345 233.375 56.9345 233.375 56.9344C233.376 56.9343 233.377 56.9343 233.378 56.9342C233.379 56.9341 233.38 56.9341 233.381 56.934C233.382 56.934 233.382 56.9339 233.383 56.9338C233.384 56.9338 233.385 56.9337 233.386 56.9336C233.387 56.9336 233.388 56.9335 233.389 56.9335C233.389 56.9334 233.39 56.9333 233.391 56.9333C233.392 56.9332 233.393 56.9331 233.394 56.9331C233.395 56.933 233.396 56.933 233.396 56.9329C233.397 56.9328 233.398 56.9328 233.399 56.9327C233.4 56.9326 233.401 56.9326 233.402 56.9325C233.403 56.9325 233.403 56.9324 233.404 56.9323C233.405 56.9323 233.406 56.9322 233.407 56.9321C233.408 56.9321 233.409 56.932 233.41 56.932C233.41 56.9319 233.411 56.9318 233.412 56.9318C233.413 56.9317 233.414 56.9316 233.415 56.9316C233.416 56.9315 233.417 56.9315 233.417 56.9314C233.418 56.9313 233.419 56.9313 233.42 56.9312C233.421 56.9311 233.422 56.9311 233.423 56.931C233.424 56.931 233.424 56.9309 233.425 56.9308C233.426 56.9308 233.427 56.9307 233.428 56.9306C233.429 56.9306 233.43 56.9305 233.431 56.9305C233.431 56.9304 233.432 56.9303 233.433 56.9303C233.434 56.9302 233.435 56.9301 233.436 56.9301C233.437 56.93 233.438 56.93 233.438 56.9299C233.439 56.9298 233.44 56.9298 233.441 56.9297C233.442 56.9296 233.443 56.9296 233.444 56.9295C233.445 56.9295 233.445 56.9294 233.446 56.9293C233.447 56.9293 233.448 56.9292 233.449 56.9291C233.45 56.9291 233.451 56.929 233.452 56.929C233.452 56.9289 233.453 56.9288 233.454 56.9288C233.455 56.9287 233.456 56.9286 233.457 56.9286C233.458 56.9285 233.459 56.9285 233.459 56.9284C233.46 56.9283 233.461 56.9283 233.462 56.9282C233.463 56.9281 233.464 56.9281 233.465 56.928C233.466 56.928 233.466 56.9279 233.467 56.9278C233.468 56.9278 233.469 56.9277 233.47 56.9276C233.471 56.9276 233.472 56.9275 233.473 56.9275C233.473 56.9274 233.474 56.9273 233.475 56.9273C233.476 56.9272 233.477 56.9271 233.478 56.9271C233.479 56.927 233.48 56.927 233.48 56.9269C233.481 56.9268 233.482 56.9268 233.483 56.9267C233.484 56.9266 233.485 56.9266 233.486 56.9265C233.487 56.9265 233.487 56.9264 233.488 56.9263C233.489 56.9263 233.49 56.9262 233.491 56.9261C233.492 56.9261 233.493 56.926 233.494 56.926C233.494 56.9259 233.495 56.9258 233.496 56.9258C233.497 56.9257 233.498 56.9256 233.499 56.9256C233.5 56.9255 233.501 56.9255 233.501 56.9254C233.502 56.9253 233.503 56.9253 233.504 56.9252C233.505 56.9251 233.506 56.9251 233.507 56.925C233.508 56.925 233.508 56.9249 233.509 56.9248C233.51 56.9248 233.511 56.9247 233.512 56.9246C233.513 56.9246 233.514 56.9245 233.515 56.9245C233.515 56.9244 233.516 56.9243 233.517 56.9243C233.518 56.9242 233.519 56.9241 233.52 56.9241C233.521 56.924 233.522 56.924 233.522 56.9239C233.523 56.9238 233.524 56.9238 233.525 56.9237C233.526 56.9236 233.527 56.9236 233.528 56.9235C233.529 56.9235 233.529 56.9234 233.53 56.9233C233.531 56.9233 233.532 56.9232 233.533 56.9231C233.534 56.9231 233.535 56.923 233.536 56.923C233.536 56.9229 233.537 56.9228 233.538 56.9228C233.539 56.9227 233.54 56.9226 233.541 56.9226C233.542 56.9225 233.543 56.9225 233.543 56.9224C233.544 56.9223 233.545 56.9223 233.546 56.9222C233.547 56.9221 233.548 56.9221 233.549 56.922C233.55 56.922 233.55 56.9219 233.551 56.9218C233.552 56.9218 233.553 56.9217 233.554 56.9216C233.555 56.9216 233.556 56.9215 233.557 56.9215C233.557 56.9214 233.558 56.9213 233.559 56.9213C233.56 56.9212 233.561 56.9211 233.562 56.9211C233.563 56.921 233.564 56.921 233.564 56.9209C233.565 56.9208 233.566 56.9208 233.567 56.9207C233.568 56.9206 233.569 56.9206 233.57 56.9205C233.571 56.9205 233.571 56.9204 233.572 56.9203C233.573 56.9203 233.574 56.9202 233.575 56.9201C233.576 56.9201 233.577 56.92 233.578 56.92C233.578 56.9199 233.579 56.9198 233.58 56.9198C233.581 56.9197 233.582 56.9196 233.583 56.9196C233.584 56.9195 233.585 56.9195 233.585 56.9194C233.586 56.9193 233.587 56.9193 233.588 56.9192C233.589 56.9191 233.59 56.9191 233.591 56.919C233.592 56.919 233.592 56.9189 233.593 56.9188C233.594 56.9188 233.595 56.9187 233.596 56.9186C233.597 56.9186 233.598 56.9185 233.599 56.9185C233.599 56.9184 233.6 56.9183 233.601 56.9183C233.602 56.9182 233.603 56.9181 233.604 56.9181C233.605 56.918 233.606 56.918 233.606 56.9179C233.607 56.9178 233.608 56.9178 233.609 56.9177C233.61 56.9176 233.611 56.9176 233.612 56.9175C233.613 56.9175 233.613 56.9174 233.614 56.9173C233.615 56.9173 233.616 56.9172 233.617 56.9171C233.618 56.9171 233.619 56.917 233.62 56.917C233.62 56.9169 233.621 56.9168 233.622 56.9168C233.623 56.9167 233.624 56.9166 233.625 56.9166C233.626 56.9165 233.627 56.9165 233.627 56.9164C233.628 56.9163 233.629 56.9163 233.63 56.9162C233.631 56.9161 233.632 56.9161 233.633 56.916C233.634 56.916 233.634 56.9159 233.635 56.9158C233.636 56.9158 233.637 56.9157 233.638 56.9156C233.639 56.9156 233.64 56.9155 233.641 56.9155C233.641 56.9154 233.642 56.9153 233.643 56.9153C233.644 56.9152 233.645 56.9151 233.646 56.9151C233.647 56.915 233.648 56.915 233.648 56.9149C233.649 56.9148 233.65 56.9148 233.651 56.9147C233.652 56.9146 233.653 56.9146 233.654 56.9145C233.655 56.9145 233.655 56.9144 233.656 56.9143C233.657 56.9143 233.658 56.9142 233.659 56.9141C233.66 56.9141 233.661 56.914 233.662 56.914C233.662 56.9139 233.663 56.9138 233.664 56.9138C233.665 56.9137 233.666 56.9136 233.667 56.9136C233.668 56.9135 233.669 56.9135 233.669 56.9134C233.67 56.9133 233.671 56.9133 233.672 56.9132C233.673 56.9131 233.674 56.9131 233.675 56.913C233.676 56.913 233.676 56.9129 233.677 56.9128C233.678 56.9128 233.679 56.9127 233.68 56.9126C233.681 56.9126 233.682 56.9125 233.683 56.9125C233.683 56.9124 233.684 56.9123 233.685 56.9123C233.686 56.9122 233.687 56.9121 233.688 56.9121C233.689 56.912 233.69 56.912 233.69 56.9119C233.691 56.9118 233.692 56.9118 233.693 56.9117C233.694 56.9116 233.695 56.9116 233.696 56.9115C233.697 56.9115 233.697 56.9114 233.698 56.9113C233.699 56.9113 233.7 56.9112 233.701 56.9111C233.702 56.9111 233.703 56.911 233.704 56.911C233.704 56.9109 233.705 56.9108 233.706 56.9108C233.707 56.9107 233.708 56.9106 233.709 56.9106C233.71 56.9105 233.711 56.9105 233.711 56.9104C233.712 56.9103 233.713 56.9103 233.714 56.9102C233.715 56.9101 233.716 56.9101 233.717 56.91C233.718 56.91 233.718 56.9099 233.719 56.9098C233.72 56.9098 233.721 56.9097 233.722 56.9096C233.723 56.9096 233.724 56.9095 233.725 56.9095C233.725 56.9094 233.726 56.9093 233.727 56.9093C233.728 56.9092 233.729 56.9091 233.73 56.9091C233.731 56.909 233.732 56.909 233.732 56.9089C233.733 56.9088 233.734 56.9088 233.735 56.9087C233.736 56.9086 233.737 56.9086 233.738 56.9085C233.739 56.9085 233.739 56.9084 233.74 56.9083C233.741 56.9083 233.742 56.9082 233.743 56.9081C233.744 56.9081 233.745 56.908 233.746 56.908C233.746 56.9079 233.747 56.9078 233.748 56.9078C233.749 56.9077 233.75 56.9076 233.751 56.9076C233.752 56.9075 233.753 56.9075 233.753 56.9074C233.754 56.9073 233.755 56.9073 233.756 56.9072C233.757 56.9071 233.758 56.9071 233.759 56.907C233.76 56.907 233.76 56.9069 233.761 56.9068C233.762 56.9068 233.763 56.9067 233.764 56.9066C233.765 56.9066 233.766 56.9065 233.767 56.9065C233.767 56.9064 233.768 56.9063 233.769 56.9063C233.77 56.9062 233.771 56.9061 233.772 56.9061C233.773 56.906 233.774 56.906 233.774 56.9059C233.775 56.9058 233.776 56.9058 233.777 56.9057C233.778 56.9056 233.779 56.9056 233.78 56.9055C233.781 56.9055 233.781 56.9054 233.782 56.9053C233.783 56.9053 233.784 56.9052 233.785 56.9051C233.786 56.9051 233.787 56.905 233.788 56.905C233.788 56.9049 233.789 56.9048 233.79 56.9048C233.791 56.9047 233.792 56.9046 233.793 56.9046C233.794 56.9045 233.795 56.9045 233.795 56.9044C233.796 56.9043 233.797 56.9043 233.798 56.9042C233.799 56.9041 233.8 56.9041 233.801 56.904C233.802 56.904 233.802 56.9039 233.803 56.9038C233.804 56.9038 233.805 56.9037 233.806 56.9036C233.807 56.9036 233.808 56.9035 233.809 56.9035C233.809 56.9034 233.81 56.9033 233.811 56.9033C233.812 56.9032 233.813 56.9031 233.814 56.9031C233.815 56.903 233.816 56.903 233.816 56.9029C233.817 56.9028 233.818 56.9028 233.819 56.9027C233.82 56.9026 233.821 56.9026 233.822 56.9025C233.823 56.9025 233.823 56.9024 233.824 56.9023C233.825 56.9023 233.826 56.9022 233.827 56.9021C233.828 56.9021 233.829 56.902 233.83 56.902C233.83 56.9019 233.831 56.9018 233.832 56.9018C233.833 56.9017 233.834 56.9016 233.835 56.9016C233.836 56.9015 233.837 56.9015 233.837 56.9014C233.838 56.9013 233.839 56.9013 233.84 56.9012C233.841 56.9011 233.842 56.9011 233.843 56.901C233.844 56.901 233.844 56.9009 233.845 56.9008C233.846 56.9008 233.847 56.9007 233.848 56.9006C233.849 56.9006 233.85 56.9005 233.851 56.9005C233.851 56.9004 233.852 56.9003 233.853 56.9003C233.854 56.9002 233.855 56.9001 233.856 56.9001C233.857 56.9 233.858 56.9 233.858 56.8999C233.859 56.8998 233.86 56.8998 233.861 56.8997C233.862 56.8996 233.863 56.8996 233.864 56.8995C233.865 56.8995 233.865 56.8994 233.866 56.8993C233.867 56.8993 233.868 56.8992 233.869 56.8991C233.87 56.8991 233.871 56.899 233.872 56.899C233.872 56.8989 233.873 56.8988 233.874 56.8988C233.875 56.8987 233.876 56.8986 233.877 56.8986C233.878 56.8985 233.879 56.8985 233.879 56.8984C233.88 56.8983 233.881 56.8983 233.882 56.8982C233.883 56.8981 233.884 56.8981 233.885 56.898C233.886 56.898 233.886 56.8979 233.887 56.8978C233.888 56.8978 233.889 56.8977 233.89 56.8976C233.891 56.8976 233.892 56.8975 233.893 56.8975C233.893 56.8974 233.894 56.8973 233.895 56.8973C233.896 56.8972 233.897 56.8971 233.898 56.8971C233.899 56.897 233.9 56.897 233.9 56.8969C233.901 56.8968 233.902 56.8968 233.903 56.8967C233.904 56.8966 233.905 56.8966 233.906 56.8965C233.907 56.8965 233.907 56.8964 233.908 56.8963C233.909 56.8963 233.91 56.8962 233.911 56.8961C233.912 56.8961 233.913 56.896 233.914 56.896C233.914 56.8959 233.915 56.8958 233.916 56.8958C233.917 56.8957 233.918 56.8956 233.919 56.8956C233.92 56.8955 233.921 56.8955 233.921 56.8954C233.922 56.8953 233.923 56.8953 233.924 56.8952C233.925 56.8951 233.926 56.8951 233.927 56.895C233.928 56.895 233.928 56.8949 233.929 56.8948C233.93 56.8948 233.931 56.8947 233.932 56.8946C233.933 56.8946 233.934 56.8945 233.935 56.8945C233.935 56.8944 233.936 56.8943 233.937 56.8943C233.938 56.8942 233.939 56.8941 233.94 56.8941C233.941 56.894 233.942 56.894 233.942 56.8939C233.943 56.8938 233.944 56.8938 233.945 56.8937C233.946 56.8936 233.947 56.8936 233.948 56.8935C233.949 56.8935 233.949 56.8934 233.95 56.8933C233.951 56.8933 233.952 56.8932 233.953 56.8931C233.954 56.8931 233.955 56.893 233.956 56.893C233.956 56.8929 233.957 56.8928 233.958 56.8928C233.959 56.8927 233.96 56.8926 233.961 56.8926C233.962 56.8925 233.963 56.8925 233.963 56.8924C233.964 56.8923 233.965 56.8923 233.966 56.8922C233.967 56.8921 233.968 56.8921 233.969 56.892C233.97 56.892 233.97 56.8919 233.971 56.8918C233.972 56.8918 233.973 56.8917 233.974 56.8916C233.975 56.8916 233.976 56.8915 233.977 56.8915C233.977 56.8914 233.978 56.8913 233.979 56.8913C233.98 56.8912 233.981 56.8911 233.982 56.8911C233.983 56.891 233.984 56.891 233.984 56.8909C233.985 56.8908 233.986 56.8908 233.987 56.8907C233.988 56.8906 233.989 56.8906 233.99 56.8905C233.991 56.8905 233.991 56.8904 233.992 56.8903C233.993 56.8903 233.994 56.8902 233.995 56.8901C233.996 56.8901 233.997 56.89 233.998 56.89C233.998 56.8899 233.999 56.8898 234 56.8898C234.001 56.8897 234.002 56.8896 234.003 56.8896C234.004 56.8895 234.005 56.8895 234.005 56.8894C234.006 56.8893 234.007 56.8893 234.008 56.8892C234.009 56.8891 234.01 56.8891 234.011 56.889C234.012 56.889 234.012 56.8889 234.013 56.8888C234.014 56.8888 234.015 56.8887 234.016 56.8886C234.017 56.8886 234.018 56.8885 234.019 56.8885C234.019 56.8884 234.02 56.8883 234.021 56.8883C234.022 56.8882 234.023 56.8881 234.024 56.8881C234.025 56.888 234.026 56.888 234.026 56.8879C234.027 56.8878 234.028 56.8878 234.029 56.8877C234.03 56.8876 234.031 56.8876 234.032 56.8875C234.033 56.8875 234.033 56.8874 234.034 56.8873C234.035 56.8873 234.036 56.8872 234.037 56.8871C234.038 56.8871 234.039 56.887 234.04 56.887C234.04 56.8869 234.041 56.8868 234.042 56.8868C234.043 56.8867 234.044 56.8866 234.045 56.8866C234.046 56.8865 234.047 56.8865 234.047 56.8864C234.048 56.8863 234.049 56.8863 234.05 56.8862C234.051 56.8861 234.052 56.8861 234.053 56.886C234.054 56.886 234.054 56.8859 234.055 56.8858C234.056 56.8858 234.057 56.8857 234.058 56.8856C234.059 56.8856 234.06 56.8855 234.061 56.8855C234.061 56.8854 234.062 56.8853 234.063 56.8853C234.064 56.8852 234.065 56.8851 234.066 56.8851C234.067 56.885 234.068 56.885 234.068 56.8849C234.069 56.8848 234.07 56.8848 234.071 56.8847C234.072 56.8846 234.073 56.8846 234.074 56.8845C234.075 56.8845 234.075 56.8844 234.076 56.8843C234.077 56.8843 234.078 56.8842 234.079 56.8841C234.08 56.8841 234.081 56.884 234.082 56.884C234.082 56.8839 234.083 56.8838 234.084 56.8838C234.085 56.8837 234.086 56.8836 234.087 56.8836C234.088 56.8835 234.089 56.8835 234.089 56.8834C234.09 56.8833 234.091 56.8833 234.092 56.8832C234.093 56.8831 234.094 56.8831 234.095 56.883C234.096 56.883 234.096 56.8829 234.097 56.8828C234.098 56.8828 234.099 56.8827 234.1 56.8826C234.101 56.8826 234.102 56.8825 234.103 56.8825C234.103 56.8824 234.104 56.8823 234.105 56.8823C234.106 56.8822 234.107 56.8821 234.108 56.8821C234.109 56.882 234.11 56.882 234.11 56.8819C234.111 56.8818 234.112 56.8818 234.113 56.8817C234.114 56.8816 234.115 56.8816 234.116 56.8815C234.117 56.8815 234.117 56.8814 234.118 56.8813C234.119 56.8813 234.12 56.8812 234.121 56.8811C234.122 56.8811 234.123 56.881 234.124 56.881C234.124 56.8809 234.125 56.8808 234.126 56.8808C234.127 56.8807 234.128 56.8806 234.129 56.8806C234.13 56.8805 234.131 56.8805 234.131 56.8804C234.132 56.8803 234.133 56.8803 234.134 56.8802C234.135 56.8801 234.136 56.8801 234.137 56.88C234.138 56.88 234.138 56.8799 234.139 56.8798C234.14 56.8798 234.141 56.8797 234.142 56.8796C234.143 56.8796 234.144 56.8795 234.145 56.8795C234.145 56.8794 234.146 56.8793 234.147 56.8793C234.148 56.8792 234.149 56.8791 234.15 56.8791C234.151 56.879 234.152 56.879 234.152 56.8789C234.153 56.8788 234.154 56.8788 234.155 56.8787C234.156 56.8786 234.157 56.8786 234.158 56.8785C234.159 56.8785 234.159 56.8784 234.16 56.8783C234.161 56.8783 234.162 56.8782 234.163 56.8781C234.164 56.8781 234.165 56.878 234.166 56.878C234.166 56.8779 234.167 56.8778 234.168 56.8778C234.169 56.8777 234.17 56.8776 234.171 56.8776C234.172 56.8775 234.173 56.8775 234.173 56.8774C234.174 56.8773 234.175 56.8773 234.176 56.8772C234.177 56.8771 234.178 56.8771 234.179 56.877C234.18 56.877 234.18 56.8769 234.181 56.8768C234.182 56.8768 234.183 56.8767 234.184 56.8766C234.185 56.8766 234.186 56.8765 234.187 56.8765C234.187 56.8764 234.188 56.8763 234.189 56.8763C234.19 56.8762 234.191 56.8761 234.192 56.8761C234.193 56.876 234.194 56.876 234.194 56.8759C234.195 56.8758 234.196 56.8758 234.197 56.8757C234.198 56.8756 234.199 56.8756 234.2 56.8755C234.201 56.8755 234.201 56.8754 234.202 56.8753C234.203 56.8753 234.204 56.8752 234.205 56.8751C234.206 56.8751 234.207 56.875 234.208 56.875C234.208 56.8749 234.209 56.8748 234.21 56.8748C234.211 56.8747 234.212 56.8746 234.213 56.8746C234.214 56.8745 234.215 56.8745 234.215 56.8744C234.216 56.8743 234.217 56.8743 234.218 56.8742C234.219 56.8741 234.22 56.8741 234.221 56.874C234.222 56.874 234.222 56.8739 234.223 56.8738C234.224 56.8738 234.225 56.8737 234.226 56.8736C234.227 56.8736 234.228 56.8735 234.229 56.8735C234.229 56.8734 234.23 56.8733 234.231 56.8733C234.232 56.8732 234.233 56.8731 234.234 56.8731C234.235 56.873 234.236 56.873 234.236 56.8729C234.237 56.8728 234.238 56.8728 234.239 56.8727C234.24 56.8726 234.241 56.8726 234.242 56.8725C234.243 56.8725 234.243 56.8724 234.244 56.8723C234.245 56.8723 234.246 56.8722 234.247 56.8721C234.248 56.8721 234.249 56.872 234.25 56.872C234.25 56.8719 234.251 56.8718 234.252 56.8718C234.253 56.8717 234.254 56.8716 234.255 56.8716C234.256 56.8715 234.257 56.8715 234.257 56.8714C234.258 56.8713 234.259 56.8713 234.26 56.8712C234.261 56.8711 234.262 56.8711 234.263 56.871C234.264 56.871 234.264 56.8709 234.265 56.8708C234.266 56.8708 234.267 56.8707 234.268 56.8706C234.269 56.8706 234.27 56.8705 234.271 56.8705C234.271 56.8704 234.272 56.8703 234.273 56.8703C234.274 56.8702 234.275 56.8701 234.276 56.8701C234.277 56.87 234.278 56.87 234.278 56.8699C234.279 56.8698 234.28 56.8698 234.281 56.8697C234.282 56.8696 234.283 56.8696 234.284 56.8695C234.285 56.8695 234.285 56.8694 234.286 56.8693C234.287 56.8693 234.288 56.8692 234.289 56.8691C234.29 56.8691 234.291 56.869 234.292 56.869C234.292 56.8689 234.293 56.8688 234.294 56.8688C234.295 56.8687 234.296 56.8686 234.297 56.8686C234.298 56.8685 234.299 56.8685 234.299 56.8684C234.3 56.8683 234.301 56.8683 234.302 56.8682C234.303 56.8681 234.304 56.8681 234.305 56.868C234.306 56.868 234.306 56.8679 234.307 56.8678C234.308 56.8678 234.309 56.8677 234.31 56.8676C234.311 56.8676 234.312 56.8675 234.313 56.8675C234.313 56.8674 234.314 56.8673 234.315 56.8673C234.316 56.8672 234.317 56.8671 234.318 56.8671C234.319 56.867 234.32 56.867 234.32 56.8669C234.321 56.8668 234.322 56.8668 234.323 56.8667C234.324 56.8666 234.325 56.8666 234.326 56.8665C234.327 56.8665 234.327 56.8664 234.328 56.8663C234.329 56.8663 234.33 56.8662 234.331 56.8661C234.332 56.8661 234.333 56.866 234.334 56.866C234.334 56.8659 234.335 56.8658 234.336 56.8658C234.337 56.8657 234.338 56.8656 234.339 56.8656C234.34 56.8655 234.341 56.8655 234.341 56.8654C234.342 56.8653 234.343 56.8653 234.344 56.8652C234.345 56.8651 234.346 56.8651 234.347 56.865C234.348 56.865 234.348 56.8649 234.349 56.8648C234.35 56.8648 234.351 56.8647 234.352 56.8646C234.353 56.8646 234.354 56.8645 234.355 56.8645C234.355 56.8644 234.356 56.8643 234.357 56.8643C234.358 56.8642 234.359 56.8641 234.36 56.8641C234.361 56.864 234.362 56.864 234.362 56.8639C234.363 56.8638 234.364 56.8638 234.365 56.8637C234.366 56.8636 234.367 56.8636 234.368 56.8635C234.369 56.8635 234.369 56.8634 234.37 56.8633C234.371 56.8633 234.372 56.8632 234.373 56.8631C234.374 56.8631 234.375 56.863 234.376 56.863C234.376 56.8629 234.377 56.8628 234.378 56.8628C234.379 56.8627 234.38 56.8626 234.381 56.8626C234.382 56.8625 234.383 56.8625 234.383 56.8624C234.384 56.8623 234.385 56.8623 234.386 56.8622C234.387 56.8621 234.388 56.8621 234.389 56.862C234.39 56.862 234.39 56.8619 234.391 56.8618C234.392 56.8618 234.393 56.8617 234.394 56.8616C234.395 56.8616 234.396 56.8615 234.397 56.8615L234.254 54.8665C234.253 54.8666 234.252 54.8667 234.252 54.8667C234.251 54.8668 234.25 54.8669 234.249 54.8669C234.248 54.867 234.247 54.867 234.246 54.8671C234.245 54.8672 234.245 54.8672 234.244 54.8673C234.243 54.8674 234.242 54.8674 234.241 54.8675C234.24 54.8675 234.239 54.8676 234.238 54.8677C234.238 54.8677 234.237 54.8678 234.236 54.8679C234.235 54.8679 234.234 54.868 234.233 54.868C234.232 54.8681 234.231 54.8682 234.231 54.8682C234.23 54.8683 234.229 54.8684 234.228 54.8684C234.227 54.8685 234.226 54.8685 234.225 54.8686C234.224 54.8687 234.224 54.8687 234.223 54.8688C234.222 54.8689 234.221 54.8689 234.22 54.869C234.219 54.869 234.218 54.8691 234.217 54.8692C234.217 54.8692 234.216 54.8693 234.215 54.8694C234.214 54.8694 234.213 54.8695 234.212 54.8695C234.211 54.8696 234.21 54.8697 234.21 54.8697C234.209 54.8698 234.208 54.8699 234.207 54.8699C234.206 54.87 234.205 54.87 234.204 54.8701C234.203 54.8702 234.203 54.8702 234.202 54.8703C234.201 54.8704 234.2 54.8704 234.199 54.8705C234.198 54.8705 234.197 54.8706 234.196 54.8707C234.196 54.8707 234.195 54.8708 234.194 54.8709C234.193 54.8709 234.192 54.871 234.191 54.871C234.19 54.8711 234.189 54.8712 234.189 54.8712C234.188 54.8713 234.187 54.8714 234.186 54.8714C234.185 54.8715 234.184 54.8715 234.183 54.8716C234.182 54.8717 234.182 54.8717 234.181 54.8718C234.18 54.8719 234.179 54.8719 234.178 54.872C234.177 54.872 234.176 54.8721 234.175 54.8722C234.175 54.8722 234.174 54.8723 234.173 54.8724C234.172 54.8724 234.171 54.8725 234.17 54.8725C234.169 54.8726 234.168 54.8727 234.168 54.8727C234.167 54.8728 234.166 54.8729 234.165 54.8729C234.164 54.873 234.163 54.873 234.162 54.8731C234.161 54.8732 234.161 54.8732 234.16 54.8733C234.159 54.8734 234.158 54.8734 234.157 54.8735C234.156 54.8735 234.155 54.8736 234.154 54.8737C234.154 54.8737 234.153 54.8738 234.152 54.8739C234.151 54.8739 234.15 54.874 234.149 54.874C234.148 54.8741 234.147 54.8742 234.147 54.8742C234.146 54.8743 234.145 54.8744 234.144 54.8744C234.143 54.8745 234.142 54.8745 234.141 54.8746C234.14 54.8747 234.14 54.8747 234.139 54.8748C234.138 54.8749 234.137 54.8749 234.136 54.875C234.135 54.875 234.134 54.8751 234.133 54.8752C234.133 54.8752 234.132 54.8753 234.131 54.8754C234.13 54.8754 234.129 54.8755 234.128 54.8755C234.127 54.8756 234.126 54.8757 234.126 54.8757C234.125 54.8758 234.124 54.8759 234.123 54.8759C234.122 54.876 234.121 54.876 234.12 54.8761C234.119 54.8762 234.119 54.8762 234.118 54.8763C234.117 54.8764 234.116 54.8764 234.115 54.8765C234.114 54.8765 234.113 54.8766 234.112 54.8767C234.112 54.8767 234.111 54.8768 234.11 54.8769C234.109 54.8769 234.108 54.877 234.107 54.877C234.106 54.8771 234.105 54.8772 234.105 54.8772C234.104 54.8773 234.103 54.8774 234.102 54.8774C234.101 54.8775 234.1 54.8775 234.099 54.8776C234.098 54.8777 234.098 54.8777 234.097 54.8778C234.096 54.8779 234.095 54.8779 234.094 54.878C234.093 54.878 234.092 54.8781 234.091 54.8782C234.091 54.8782 234.09 54.8783 234.089 54.8784C234.088 54.8784 234.087 54.8785 234.086 54.8785C234.085 54.8786 234.084 54.8787 234.084 54.8787C234.083 54.8788 234.082 54.8789 234.081 54.8789C234.08 54.879 234.079 54.879 234.078 54.8791C234.077 54.8792 234.077 54.8792 234.076 54.8793C234.075 54.8794 234.074 54.8794 234.073 54.8795C234.072 54.8795 234.071 54.8796 234.07 54.8797C234.07 54.8797 234.069 54.8798 234.068 54.8799C234.067 54.8799 234.066 54.88 234.065 54.88C234.064 54.8801 234.063 54.8802 234.063 54.8802C234.062 54.8803 234.061 54.8804 234.06 54.8804C234.059 54.8805 234.058 54.8805 234.057 54.8806C234.056 54.8807 234.056 54.8807 234.055 54.8808C234.054 54.8809 234.053 54.8809 234.052 54.881C234.051 54.881 234.05 54.8811 234.049 54.8812C234.049 54.8812 234.048 54.8813 234.047 54.8814C234.046 54.8814 234.045 54.8815 234.044 54.8815C234.043 54.8816 234.042 54.8817 234.042 54.8817C234.041 54.8818 234.04 54.8819 234.039 54.8819C234.038 54.882 234.037 54.882 234.036 54.8821C234.035 54.8822 234.035 54.8822 234.034 54.8823C234.033 54.8824 234.032 54.8824 234.031 54.8825C234.03 54.8825 234.029 54.8826 234.028 54.8827C234.028 54.8827 234.027 54.8828 234.026 54.8829C234.025 54.8829 234.024 54.883 234.023 54.883C234.022 54.8831 234.021 54.8832 234.021 54.8832C234.02 54.8833 234.019 54.8834 234.018 54.8834C234.017 54.8835 234.016 54.8835 234.015 54.8836C234.014 54.8837 234.014 54.8837 234.013 54.8838C234.012 54.8839 234.011 54.8839 234.01 54.884C234.009 54.884 234.008 54.8841 234.007 54.8842C234.007 54.8842 234.006 54.8843 234.005 54.8844C234.004 54.8844 234.003 54.8845 234.002 54.8845C234.001 54.8846 234 54.8847 234 54.8847C233.999 54.8848 233.998 54.8849 233.997 54.8849C233.996 54.885 233.995 54.885 233.994 54.8851C233.993 54.8852 233.993 54.8852 233.992 54.8853C233.991 54.8854 233.99 54.8854 233.989 54.8855C233.988 54.8855 233.987 54.8856 233.986 54.8857C233.986 54.8857 233.985 54.8858 233.984 54.8859C233.983 54.8859 233.982 54.886 233.981 54.886C233.98 54.8861 233.979 54.8862 233.979 54.8862C233.978 54.8863 233.977 54.8864 233.976 54.8864C233.975 54.8865 233.974 54.8865 233.973 54.8866C233.972 54.8867 233.972 54.8867 233.971 54.8868C233.97 54.8869 233.969 54.8869 233.968 54.887C233.967 54.887 233.966 54.8871 233.965 54.8872C233.965 54.8872 233.964 54.8873 233.963 54.8874C233.962 54.8874 233.961 54.8875 233.96 54.8875C233.959 54.8876 233.958 54.8877 233.958 54.8877C233.957 54.8878 233.956 54.8879 233.955 54.8879C233.954 54.888 233.953 54.888 233.952 54.8881C233.951 54.8882 233.951 54.8882 233.95 54.8883C233.949 54.8884 233.948 54.8884 233.947 54.8885C233.946 54.8885 233.945 54.8886 233.944 54.8887C233.944 54.8887 233.943 54.8888 233.942 54.8889C233.941 54.8889 233.94 54.889 233.939 54.889C233.938 54.8891 233.937 54.8892 233.937 54.8892C233.936 54.8893 233.935 54.8894 233.934 54.8894C233.933 54.8895 233.932 54.8895 233.931 54.8896C233.93 54.8897 233.93 54.8897 233.929 54.8898C233.928 54.8899 233.927 54.8899 233.926 54.89C233.925 54.89 233.924 54.8901 233.923 54.8902C233.923 54.8902 233.922 54.8903 233.921 54.8904C233.92 54.8904 233.919 54.8905 233.918 54.8905C233.917 54.8906 233.916 54.8907 233.916 54.8907C233.915 54.8908 233.914 54.8909 233.913 54.8909C233.912 54.891 233.911 54.891 233.91 54.8911C233.909 54.8912 233.909 54.8912 233.908 54.8913C233.907 54.8914 233.906 54.8914 233.905 54.8915C233.904 54.8915 233.903 54.8916 233.902 54.8917C233.902 54.8917 233.901 54.8918 233.9 54.8919C233.899 54.8919 233.898 54.892 233.897 54.892C233.896 54.8921 233.895 54.8922 233.895 54.8922C233.894 54.8923 233.893 54.8924 233.892 54.8924C233.891 54.8925 233.89 54.8925 233.889 54.8926C233.888 54.8927 233.888 54.8927 233.887 54.8928C233.886 54.8929 233.885 54.8929 233.884 54.893C233.883 54.893 233.882 54.8931 233.881 54.8932C233.881 54.8932 233.88 54.8933 233.879 54.8934C233.878 54.8934 233.877 54.8935 233.876 54.8935C233.875 54.8936 233.874 54.8937 233.874 54.8937C233.873 54.8938 233.872 54.8939 233.871 54.8939C233.87 54.894 233.869 54.894 233.868 54.8941C233.867 54.8942 233.867 54.8942 233.866 54.8943C233.865 54.8944 233.864 54.8944 233.863 54.8945C233.862 54.8945 233.861 54.8946 233.86 54.8947C233.86 54.8947 233.859 54.8948 233.858 54.8949C233.857 54.8949 233.856 54.895 233.855 54.895C233.854 54.8951 233.853 54.8952 233.853 54.8952C233.852 54.8953 233.851 54.8954 233.85 54.8954C233.849 54.8955 233.848 54.8955 233.847 54.8956C233.846 54.8957 233.846 54.8957 233.845 54.8958C233.844 54.8959 233.843 54.8959 233.842 54.896C233.841 54.896 233.84 54.8961 233.839 54.8962C233.839 54.8962 233.838 54.8963 233.837 54.8964C233.836 54.8964 233.835 54.8965 233.834 54.8965C233.833 54.8966 233.832 54.8967 233.832 54.8967C233.831 54.8968 233.83 54.8969 233.829 54.8969C233.828 54.897 233.827 54.897 233.826 54.8971C233.825 54.8972 233.825 54.8972 233.824 54.8973C233.823 54.8974 233.822 54.8974 233.821 54.8975C233.82 54.8975 233.819 54.8976 233.818 54.8977C233.818 54.8977 233.817 54.8978 233.816 54.8979C233.815 54.8979 233.814 54.898 233.813 54.898C233.812 54.8981 233.811 54.8982 233.811 54.8982C233.81 54.8983 233.809 54.8984 233.808 54.8984C233.807 54.8985 233.806 54.8985 233.805 54.8986C233.804 54.8987 233.804 54.8987 233.803 54.8988C233.802 54.8989 233.801 54.8989 233.8 54.899C233.799 54.899 233.798 54.8991 233.797 54.8992C233.797 54.8992 233.796 54.8993 233.795 54.8994C233.794 54.8994 233.793 54.8995 233.792 54.8995C233.791 54.8996 233.79 54.8997 233.79 54.8997C233.789 54.8998 233.788 54.8999 233.787 54.8999C233.786 54.9 233.785 54.9 233.784 54.9001C233.783 54.9002 233.783 54.9002 233.782 54.9003C233.781 54.9004 233.78 54.9004 233.779 54.9005C233.778 54.9005 233.777 54.9006 233.776 54.9007C233.776 54.9007 233.775 54.9008 233.774 54.9009C233.773 54.9009 233.772 54.901 233.771 54.901C233.77 54.9011 233.769 54.9012 233.769 54.9012C233.768 54.9013 233.767 54.9014 233.766 54.9014C233.765 54.9015 233.764 54.9015 233.763 54.9016C233.762 54.9017 233.762 54.9017 233.761 54.9018C233.76 54.9019 233.759 54.9019 233.758 54.902C233.757 54.902 233.756 54.9021 233.755 54.9022C233.755 54.9022 233.754 54.9023 233.753 54.9024C233.752 54.9024 233.751 54.9025 233.75 54.9025C233.749 54.9026 233.748 54.9027 233.748 54.9027C233.747 54.9028 233.746 54.9029 233.745 54.9029C233.744 54.903 233.743 54.903 233.742 54.9031C233.741 54.9032 233.741 54.9032 233.74 54.9033C233.739 54.9034 233.738 54.9034 233.737 54.9035C233.736 54.9035 233.735 54.9036 233.734 54.9037C233.734 54.9037 233.733 54.9038 233.732 54.9039C233.731 54.9039 233.73 54.904 233.729 54.904C233.728 54.9041 233.727 54.9042 233.727 54.9042C233.726 54.9043 233.725 54.9044 233.724 54.9044C233.723 54.9045 233.722 54.9045 233.721 54.9046C233.72 54.9047 233.72 54.9047 233.719 54.9048C233.718 54.9049 233.717 54.9049 233.716 54.905C233.715 54.905 233.714 54.9051 233.713 54.9052C233.713 54.9052 233.712 54.9053 233.711 54.9054C233.71 54.9054 233.709 54.9055 233.708 54.9055C233.707 54.9056 233.706 54.9057 233.706 54.9057C233.705 54.9058 233.704 54.9059 233.703 54.9059C233.702 54.906 233.701 54.906 233.7 54.9061C233.699 54.9062 233.699 54.9062 233.698 54.9063C233.697 54.9064 233.696 54.9064 233.695 54.9065C233.694 54.9065 233.693 54.9066 233.692 54.9067C233.692 54.9067 233.691 54.9068 233.69 54.9069C233.689 54.9069 233.688 54.907 233.687 54.907C233.686 54.9071 233.685 54.9072 233.685 54.9072C233.684 54.9073 233.683 54.9074 233.682 54.9074C233.681 54.9075 233.68 54.9075 233.679 54.9076C233.678 54.9077 233.678 54.9077 233.677 54.9078C233.676 54.9079 233.675 54.9079 233.674 54.908C233.673 54.908 233.672 54.9081 233.671 54.9082C233.671 54.9082 233.67 54.9083 233.669 54.9084C233.668 54.9084 233.667 54.9085 233.666 54.9085C233.665 54.9086 233.664 54.9087 233.664 54.9087C233.663 54.9088 233.662 54.9089 233.661 54.9089C233.66 54.909 233.659 54.909 233.658 54.9091C233.657 54.9092 233.657 54.9092 233.656 54.9093C233.655 54.9094 233.654 54.9094 233.653 54.9095C233.652 54.9095 233.651 54.9096 233.65 54.9097C233.65 54.9097 233.649 54.9098 233.648 54.9099C233.647 54.9099 233.646 54.91 233.645 54.91C233.644 54.9101 233.643 54.9102 233.643 54.9102C233.642 54.9103 233.641 54.9104 233.64 54.9104C233.639 54.9105 233.638 54.9105 233.637 54.9106C233.636 54.9107 233.636 54.9107 233.635 54.9108C233.634 54.9109 233.633 54.9109 233.632 54.911C233.631 54.911 233.63 54.9111 233.629 54.9112C233.629 54.9112 233.628 54.9113 233.627 54.9114C233.626 54.9114 233.625 54.9115 233.624 54.9115C233.623 54.9116 233.622 54.9117 233.622 54.9117C233.621 54.9118 233.62 54.9119 233.619 54.9119C233.618 54.912 233.617 54.912 233.616 54.9121C233.615 54.9122 233.615 54.9122 233.614 54.9123C233.613 54.9124 233.612 54.9124 233.611 54.9125C233.61 54.9125 233.609 54.9126 233.608 54.9127C233.608 54.9127 233.607 54.9128 233.606 54.9129C233.605 54.9129 233.604 54.913 233.603 54.913C233.602 54.9131 233.601 54.9132 233.601 54.9132C233.6 54.9133 233.599 54.9134 233.598 54.9134C233.597 54.9135 233.596 54.9135 233.595 54.9136C233.594 54.9137 233.594 54.9137 233.593 54.9138C233.592 54.9139 233.591 54.9139 233.59 54.914C233.589 54.914 233.588 54.9141 233.587 54.9142C233.587 54.9142 233.586 54.9143 233.585 54.9144C233.584 54.9144 233.583 54.9145 233.582 54.9145C233.581 54.9146 233.58 54.9147 233.58 54.9147C233.579 54.9148 233.578 54.9149 233.577 54.9149C233.576 54.915 233.575 54.915 233.574 54.9151C233.573 54.9152 233.573 54.9152 233.572 54.9153C233.571 54.9154 233.57 54.9154 233.569 54.9155C233.568 54.9155 233.567 54.9156 233.566 54.9157C233.566 54.9157 233.565 54.9158 233.564 54.9159C233.563 54.9159 233.562 54.916 233.561 54.916C233.56 54.9161 233.559 54.9162 233.559 54.9162C233.558 54.9163 233.557 54.9164 233.556 54.9164C233.555 54.9165 233.554 54.9165 233.553 54.9166C233.552 54.9167 233.552 54.9167 233.551 54.9168C233.55 54.9169 233.549 54.9169 233.548 54.917C233.547 54.917 233.546 54.9171 233.545 54.9172C233.545 54.9172 233.544 54.9173 233.543 54.9174C233.542 54.9174 233.541 54.9175 233.54 54.9175C233.539 54.9176 233.538 54.9177 233.538 54.9177C233.537 54.9178 233.536 54.9179 233.535 54.9179C233.534 54.918 233.533 54.918 233.532 54.9181C233.531 54.9182 233.531 54.9182 233.53 54.9183C233.529 54.9184 233.528 54.9184 233.527 54.9185C233.526 54.9185 233.525 54.9186 233.524 54.9187C233.524 54.9187 233.523 54.9188 233.522 54.9189C233.521 54.9189 233.52 54.919 233.519 54.919C233.518 54.9191 233.517 54.9192 233.517 54.9192C233.516 54.9193 233.515 54.9194 233.514 54.9194C233.513 54.9195 233.512 54.9195 233.511 54.9196C233.51 54.9197 233.51 54.9197 233.509 54.9198C233.508 54.9199 233.507 54.9199 233.506 54.92C233.505 54.92 233.504 54.9201 233.503 54.9202C233.503 54.9202 233.502 54.9203 233.501 54.9204C233.5 54.9204 233.499 54.9205 233.498 54.9205C233.497 54.9206 233.496 54.9207 233.496 54.9207C233.495 54.9208 233.494 54.9209 233.493 54.9209C233.492 54.921 233.491 54.921 233.49 54.9211C233.489 54.9212 233.489 54.9212 233.488 54.9213C233.487 54.9214 233.486 54.9214 233.485 54.9215C233.484 54.9215 233.483 54.9216 233.482 54.9217C233.482 54.9217 233.481 54.9218 233.48 54.9219C233.479 54.9219 233.478 54.922 233.477 54.922C233.476 54.9221 233.475 54.9222 233.475 54.9222C233.474 54.9223 233.473 54.9224 233.472 54.9224C233.471 54.9225 233.47 54.9225 233.469 54.9226C233.468 54.9227 233.468 54.9227 233.467 54.9228C233.466 54.9229 233.465 54.9229 233.464 54.923C233.463 54.923 233.462 54.9231 233.461 54.9232C233.461 54.9232 233.46 54.9233 233.459 54.9234C233.458 54.9234 233.457 54.9235 233.456 54.9235C233.455 54.9236 233.454 54.9237 233.454 54.9237C233.453 54.9238 233.452 54.9239 233.451 54.9239C233.45 54.924 233.449 54.924 233.448 54.9241C233.447 54.9242 233.447 54.9242 233.446 54.9243C233.445 54.9244 233.444 54.9244 233.443 54.9245C233.442 54.9245 233.441 54.9246 233.44 54.9247C233.44 54.9247 233.439 54.9248 233.438 54.9249C233.437 54.9249 233.436 54.925 233.435 54.925C233.434 54.9251 233.433 54.9252 233.433 54.9252C233.432 54.9253 233.431 54.9254 233.43 54.9254C233.429 54.9255 233.428 54.9255 233.427 54.9256C233.426 54.9257 233.426 54.9257 233.425 54.9258C233.424 54.9259 233.423 54.9259 233.422 54.926C233.421 54.926 233.42 54.9261 233.419 54.9262C233.419 54.9262 233.418 54.9263 233.417 54.9264C233.416 54.9264 233.415 54.9265 233.414 54.9265C233.413 54.9266 233.412 54.9267 233.412 54.9267C233.411 54.9268 233.41 54.9269 233.409 54.9269C233.408 54.927 233.407 54.927 233.406 54.9271C233.405 54.9272 233.405 54.9272 233.404 54.9273C233.403 54.9274 233.402 54.9274 233.401 54.9275C233.4 54.9275 233.399 54.9276 233.398 54.9277C233.398 54.9277 233.397 54.9278 233.396 54.9279C233.395 54.9279 233.394 54.928 233.393 54.928C233.392 54.9281 233.391 54.9282 233.391 54.9282C233.39 54.9283 233.389 54.9284 233.388 54.9284C233.387 54.9285 233.386 54.9285 233.385 54.9286C233.384 54.9287 233.384 54.9287 233.383 54.9288C233.382 54.9289 233.381 54.9289 233.38 54.929C233.379 54.929 233.378 54.9291 233.377 54.9292C233.377 54.9292 233.376 54.9293 233.375 54.9294C233.374 54.9294 233.373 54.9295 233.372 54.9295C233.371 54.9296 233.37 54.9297 233.37 54.9297C233.369 54.9298 233.368 54.9299 233.367 54.9299C233.366 54.93 233.365 54.93 233.364 54.9301C233.363 54.9302 233.363 54.9302 233.362 54.9303C233.361 54.9304 233.36 54.9304 233.359 54.9305C233.358 54.9305 233.357 54.9306 233.356 54.9307C233.356 54.9307 233.355 54.9308 233.354 54.9309C233.353 54.9309 233.352 54.931 233.351 54.931C233.35 54.9311 233.349 54.9312 233.349 54.9312C233.348 54.9313 233.347 54.9314 233.346 54.9314C233.345 54.9315 233.344 54.9315 233.343 54.9316C233.342 54.9317 233.342 54.9317 233.341 54.9318C233.34 54.9319 233.339 54.9319 233.338 54.932C233.337 54.932 233.336 54.9321 233.335 54.9322C233.335 54.9322 233.334 54.9323 233.333 54.9324C233.332 54.9324 233.331 54.9325 233.33 54.9325C233.329 54.9326 233.328 54.9327 233.328 54.9327C233.327 54.9328 233.326 54.9329 233.325 54.9329C233.324 54.933 233.323 54.933 233.322 54.9331C233.321 54.9332 233.321 54.9332 233.32 54.9333C233.319 54.9334 233.318 54.9334 233.317 54.9335C233.316 54.9335 233.315 54.9336 233.314 54.9337C233.314 54.9337 233.313 54.9338 233.312 54.9339C233.311 54.9339 233.31 54.934 233.309 54.934C233.308 54.9341 233.307 54.9342 233.307 54.9342C233.306 54.9343 233.305 54.9344 233.304 54.9344C233.303 54.9345 233.302 54.9345 233.301 54.9346C233.3 54.9347 233.3 54.9347 233.299 54.9348C233.298 54.9349 233.297 54.9349 233.296 54.935C233.295 54.935 233.294 54.9351 233.293 54.9352C233.293 54.9352 233.292 54.9353 233.291 54.9354C233.29 54.9354 233.289 54.9355 233.288 54.9355C233.287 54.9356 233.286 54.9357 233.286 54.9357C233.285 54.9358 233.284 54.9359 233.283 54.9359C233.282 54.936 233.281 54.936 233.28 54.9361C233.279 54.9362 233.279 54.9362 233.278 54.9363C233.277 54.9364 233.276 54.9364 233.275 54.9365C233.274 54.9365 233.273 54.9366 233.272 54.9367C233.272 54.9367 233.271 54.9368 233.27 54.9369C233.269 54.9369 233.268 54.937 233.267 54.937C233.266 54.9371 233.265 54.9372 233.265 54.9372C233.264 54.9373 233.263 54.9374 233.262 54.9374C233.261 54.9375 233.26 54.9375 233.259 54.9376C233.258 54.9377 233.258 54.9377 233.257 54.9378C233.256 54.9379 233.255 54.9379 233.254 54.938C233.253 54.938 233.252 54.9381 233.251 54.9382C233.251 54.9382 233.25 54.9383 233.249 54.9384C233.248 54.9384 233.247 54.9385 233.246 54.9385C233.245 54.9386 233.244 54.9387 233.244 54.9387C233.243 54.9388 233.242 54.9389 233.241 54.9389C233.24 54.939 233.239 54.939 233.238 54.9391C233.237 54.9392 233.237 54.9392 233.236 54.9393C233.235 54.9394 233.234 54.9394 233.233 54.9395C233.232 54.9395 233.231 54.9396 233.23 54.9397C233.23 54.9397 233.229 54.9398 233.228 54.9399C233.227 54.9399 233.226 54.94 233.225 54.94C233.224 54.9401 233.223 54.9402 233.223 54.9402C233.222 54.9403 233.221 54.9404 233.22 54.9404C233.219 54.9405 233.218 54.9405 233.217 54.9406C233.216 54.9407 233.216 54.9407 233.215 54.9408C233.214 54.9409 233.213 54.9409 233.212 54.941C233.211 54.941 233.21 54.9411 233.209 54.9412C233.209 54.9412 233.208 54.9413 233.207 54.9414C233.206 54.9414 233.205 54.9415 233.204 54.9415C233.203 54.9416 233.202 54.9417 233.202 54.9417C233.201 54.9418 233.2 54.9419 233.199 54.9419C233.198 54.942 233.197 54.942 233.196 54.9421C233.195 54.9422 233.195 54.9422 233.194 54.9423C233.193 54.9424 233.192 54.9424 233.191 54.9425C233.19 54.9425 233.189 54.9426 233.188 54.9427C233.188 54.9427 233.187 54.9428 233.186 54.9429C233.185 54.9429 233.184 54.943 233.183 54.943C233.182 54.9431 233.181 54.9432 233.181 54.9432C233.18 54.9433 233.179 54.9434 233.178 54.9434C233.177 54.9435 233.176 54.9435 233.175 54.9436C233.174 54.9437 233.174 54.9437 233.173 54.9438C233.172 54.9439 233.171 54.9439 233.17 54.944C233.169 54.944 233.168 54.9441 233.167 54.9442C233.167 54.9442 233.166 54.9443 233.165 54.9444C233.164 54.9444 233.163 54.9445 233.162 54.9445C233.161 54.9446 233.16 54.9447 233.16 54.9447C233.159 54.9448 233.158 54.9449 233.157 54.9449C233.156 54.945 233.155 54.945 233.154 54.9451C233.153 54.9452 233.153 54.9452 233.152 54.9453C233.151 54.9454 233.15 54.9454 233.149 54.9455C233.148 54.9455 233.147 54.9456 233.146 54.9457C233.146 54.9457 233.145 54.9458 233.144 54.9459C233.143 54.9459 233.142 54.946 233.141 54.946C233.14 54.9461 233.139 54.9462 233.139 54.9462C233.138 54.9463 233.137 54.9464 233.136 54.9464C233.135 54.9465 233.134 54.9465 233.133 54.9466C233.132 54.9467 233.132 54.9467 233.131 54.9468C233.13 54.9469 233.129 54.9469 233.128 54.947C233.127 54.947 233.126 54.9471 233.125 54.9472C233.125 54.9472 233.124 54.9473 233.123 54.9474C233.122 54.9474 233.121 54.9475 233.12 54.9475C233.119 54.9476 233.118 54.9477 233.118 54.9477C233.117 54.9478 233.116 54.9479 233.115 54.9479C233.114 54.948 233.113 54.948 233.112 54.9481C233.111 54.9482 233.111 54.9482 233.11 54.9483C233.109 54.9484 233.108 54.9484 233.107 54.9485C233.106 54.9485 233.105 54.9486 233.104 54.9487C233.104 54.9487 233.103 54.9488 233.102 54.9489C233.101 54.9489 233.1 54.949 233.099 54.949C233.098 54.9491 233.097 54.9492 233.097 54.9492C233.096 54.9493 233.095 54.9494 233.094 54.9494C233.093 54.9495 233.092 54.9495 233.091 54.9496C233.09 54.9497 233.09 54.9497 233.089 54.9498C233.088 54.9499 233.087 54.9499 233.086 54.95C233.085 54.95 233.084 54.9501 233.083 54.9502C233.083 54.9502 233.082 54.9503 233.081 54.9504C233.08 54.9504 233.079 54.9505 233.078 54.9505C233.077 54.9506 233.076 54.9507 233.076 54.9507C233.075 54.9508 233.074 54.9509 233.073 54.9509C233.072 54.951 233.071 54.951 233.07 54.9511C233.069 54.9512 233.069 54.9512 233.068 54.9513C233.067 54.9514 233.066 54.9514 233.065 54.9515C233.064 54.9515 233.063 54.9516 233.062 54.9517C233.062 54.9517 233.061 54.9518 233.06 54.9519C233.059 54.9519 233.058 54.952 233.057 54.952C233.056 54.9521 233.055 54.9522 233.055 54.9522C233.054 54.9523 233.053 54.9524 233.052 54.9524C233.051 54.9525 233.05 54.9525 233.049 54.9526C233.048 54.9527 233.048 54.9527 233.047 54.9528C233.046 54.9529 233.045 54.9529 233.044 54.953C233.043 54.953 233.042 54.9531 233.041 54.9532C233.041 54.9532 233.04 54.9533 233.039 54.9534C233.038 54.9534 233.037 54.9535 233.036 54.9535C233.035 54.9536 233.034 54.9537 233.034 54.9537C233.033 54.9538 233.032 54.9539 233.031 54.9539C233.03 54.954 233.029 54.954 233.028 54.9541C233.027 54.9542 233.027 54.9542 233.026 54.9543C233.025 54.9544 233.024 54.9544 233.023 54.9545C233.022 54.9545 233.021 54.9546 233.02 54.9547C233.02 54.9547 233.019 54.9548 233.018 54.9549C233.017 54.9549 233.016 54.955 233.015 54.955C233.014 54.9551 233.013 54.9552 233.013 54.9552C233.012 54.9553 233.011 54.9554 233.01 54.9554C233.009 54.9555 233.008 54.9555 233.007 54.9556C233.006 54.9557 233.006 54.9557 233.005 54.9558C233.004 54.9559 233.003 54.9559 233.002 54.956C233.001 54.956 233 54.9561 232.999 54.9562C232.999 54.9562 232.998 54.9563 232.997 54.9564C232.996 54.9564 232.995 54.9565 232.994 54.9565C232.993 54.9566 232.992 54.9567 232.992 54.9567C232.991 54.9568 232.99 54.9569 232.989 54.9569C232.988 54.957 232.987 54.957 232.986 54.9571C232.985 54.9572 232.985 54.9572 232.984 54.9573C232.983 54.9574 232.982 54.9574 232.981 54.9575C232.98 54.9575 232.979 54.9576 232.978 54.9577C232.978 54.9577 232.977 54.9578 232.976 54.9579C232.975 54.9579 232.974 54.958 232.973 54.958C232.972 54.9581 232.971 54.9582 232.971 54.9582C232.97 54.9583 232.969 54.9584 232.968 54.9584C232.967 54.9585 232.966 54.9585 232.965 54.9586C232.964 54.9587 232.964 54.9587 232.963 54.9588C232.962 54.9589 232.961 54.9589 232.96 54.959C232.959 54.959 232.958 54.9591 232.957 54.9592C232.957 54.9592 232.956 54.9593 232.955 54.9594C232.954 54.9594 232.953 54.9595 232.952 54.9595C232.951 54.9596 232.95 54.9597 232.95 54.9597C232.949 54.9598 232.948 54.9599 232.947 54.9599C232.946 54.96 232.945 54.96 232.944 54.9601C232.943 54.9602 232.943 54.9602 232.942 54.9603C232.941 54.9604 232.94 54.9604 232.939 54.9605C232.938 54.9605 232.937 54.9606 232.936 54.9607C232.936 54.9607 232.935 54.9608 232.934 54.9609C232.933 54.9609 232.932 54.961 232.931 54.961C232.93 54.9611 232.929 54.9612 232.929 54.9612C232.928 54.9613 232.927 54.9614 232.926 54.9614C232.925 54.9615 232.924 54.9615 232.923 54.9616C232.922 54.9617 232.922 54.9617 232.921 54.9618C232.92 54.9619 232.919 54.9619 232.918 54.962C232.917 54.962 232.916 54.9621 232.915 54.9622C232.915 54.9622 232.914 54.9623 232.913 54.9624C232.912 54.9624 232.911 54.9625 232.91 54.9625L233.053 56.9575ZM234.397 56.8615C234.851 56.829 235.234 56.7959 235.54 56.7619L235.319 54.7741C235.049 54.8041 234.695 54.835 234.254 54.8665L234.397 56.8615ZM234.43 55.8054L234.622 60.9414L236.621 60.8666L236.429 55.7306L234.43 55.8054ZM235.457 59.9176C234.697 60.0442 233.776 60.1872 232.692 60.3466L232.983 62.3254C234.075 62.1648 235.01 62.0198 235.786 61.8904L235.457 59.9176ZM232.688 60.3473C231.659 60.5032 230.833 60.576 230.197 60.576V62.576C230.97 62.576 231.904 62.4888 232.987 62.3247L232.688 60.3473Z" fill="black"/>
    </g>
</g>
    <defs>
        <filter id="filter0_d_5_68" x="20.64" y="27.064" width="218.981" height="52.064" filterUnits="userSpaceOnUse" color-interpolation-filters="sRGB">
            <feFlood flood-opacity="0" result="BackgroundImageFix"/>
            <feColorMatrix in="SourceAlpha" type="matrix" values="0 0 0 0 0 0 0 0 0 0 0 0 0 0 0 0 0 0 127 0" result="hardAlpha"/>
            <feOffset dy="4"/>
            <feGaussianBlur stdDeviation="2"/>
            <feComposite in2="hardAlpha" operator="out"/>
            <feColorMatrix type="matrix" values="0 0 0 0 0 0 0 0 0 0 0 0 0 0 0 0 0 0 0.25 0"/>
            <feBlend mode="normal" in2="BackgroundImageFix" result="effect1_dropShadow_5_68"/>
            <feBlend mode="normal" in="SourceGraphic" in2="effect1_dropShadow_5_68" result="shape"/>
        </filter>
    </defs>
</svg>
